<mxfile host="65bd71144e">
    <diagram id="xbizjtLBBtyYVJC4rEk6" name="Page-1">
        <mxGraphModel dx="690" dy="775" grid="1" gridSize="10" guides="1" tooltips="1" connect="1" arrows="1" fold="1" page="1" pageScale="1" pageWidth="827" pageHeight="1169" background="none" math="1" shadow="0">
            <root>
                <mxCell id="0"/>
                <mxCell id="1" parent="0"/>
                <mxCell id="71" value="$$S_1$$" style="shape=table;startSize=30;container=1;collapsible=0;childLayout=tableLayout;fontFamily=palatina;html=1;fontSource=https%3A%2F%2Ffonts.googleapis.com%2Fcss%3Ffamily%3Dpalatina;resizeHeight=0;rounded=0;strokeColor=default;perimeterSpacing=12;shadow=0;swimlaneLine=1;dashed=1;" vertex="1" parent="1">
                    <mxGeometry x="80" y="30" width="100" height="150" as="geometry"/>
                </mxCell>
                <mxCell id="72" value="" style="shape=tableRow;horizontal=0;startSize=0;swimlaneHead=0;swimlaneBody=0;top=0;left=0;bottom=0;right=0;collapsible=0;dropTarget=0;fillColor=none;points=[[0,0.5],[1,0.5]];portConstraint=eastwest;fontFamily=palatina;fontSource=https%3A%2F%2Ffonts.googleapis.com%2Fcss%3Ffamily%3Dpalatina;resizeHeight=0;shadow=0;swimlaneLine=1;dashed=1;" vertex="1" parent="71">
                    <mxGeometry y="30" width="100" height="40" as="geometry"/>
                </mxCell>
                <mxCell id="73" value="1" style="shape=partialRectangle;html=1;whiteSpace=wrap;connectable=0;overflow=hidden;fillColor=none;top=0;left=0;bottom=0;right=0;pointerEvents=1;fontFamily=palatina;fontSource=https%3A%2F%2Ffonts.googleapis.com%2Fcss%3Ffamily%3Dpalatina;resizeHeight=0;shadow=0;swimlaneLine=1;dashed=1;" vertex="1" parent="72">
                    <mxGeometry width="34" height="40" as="geometry">
                        <mxRectangle width="34" height="40" as="alternateBounds"/>
                    </mxGeometry>
                </mxCell>
                <mxCell id="74" value="11" style="shape=partialRectangle;html=1;whiteSpace=wrap;connectable=0;overflow=hidden;fillColor=none;top=0;left=0;bottom=0;right=0;pointerEvents=1;fontFamily=palatina;fontSource=https%3A%2F%2Ffonts.googleapis.com%2Fcss%3Ffamily%3Dpalatina;resizeHeight=0;shadow=0;swimlaneLine=1;dashed=1;" vertex="1" parent="72">
                    <mxGeometry x="34" width="32" height="40" as="geometry">
                        <mxRectangle width="32" height="40" as="alternateBounds"/>
                    </mxGeometry>
                </mxCell>
                <mxCell id="75" value="2024" style="shape=partialRectangle;html=1;whiteSpace=wrap;connectable=0;overflow=hidden;fillColor=none;top=0;left=0;bottom=0;right=0;pointerEvents=1;fontFamily=palatina;fontSource=https%3A%2F%2Ffonts.googleapis.com%2Fcss%3Ffamily%3Dpalatina;resizeHeight=0;shadow=0;swimlaneLine=1;dashed=1;" vertex="1" parent="72">
                    <mxGeometry x="66" width="34" height="40" as="geometry">
                        <mxRectangle width="34" height="40" as="alternateBounds"/>
                    </mxGeometry>
                </mxCell>
                <mxCell id="76" value="" style="shape=tableRow;horizontal=0;startSize=0;swimlaneHead=0;swimlaneBody=0;top=0;left=0;bottom=0;right=0;collapsible=0;dropTarget=0;fillColor=none;points=[[0,0.5],[1,0.5]];portConstraint=eastwest;fontFamily=palatina;fontSource=https%3A%2F%2Ffonts.googleapis.com%2Fcss%3Ffamily%3Dpalatina;resizeHeight=0;shadow=0;swimlaneLine=1;dashed=1;" vertex="1" parent="71">
                    <mxGeometry y="70" width="100" height="40" as="geometry"/>
                </mxCell>
                <mxCell id="77" value="2" style="shape=partialRectangle;html=1;whiteSpace=wrap;connectable=0;overflow=hidden;fillColor=none;top=0;left=0;bottom=0;right=0;pointerEvents=1;fontFamily=palatina;fontSource=https%3A%2F%2Ffonts.googleapis.com%2Fcss%3Ffamily%3Dpalatina;resizeHeight=0;shadow=0;swimlaneLine=1;dashed=1;" vertex="1" parent="76">
                    <mxGeometry width="34" height="40" as="geometry">
                        <mxRectangle width="34" height="40" as="alternateBounds"/>
                    </mxGeometry>
                </mxCell>
                <mxCell id="78" value="12" style="shape=partialRectangle;html=1;whiteSpace=wrap;connectable=0;overflow=hidden;fillColor=none;top=0;left=0;bottom=0;right=0;pointerEvents=1;fontFamily=palatina;fontSource=https%3A%2F%2Ffonts.googleapis.com%2Fcss%3Ffamily%3Dpalatina;resizeHeight=0;shadow=0;swimlaneLine=1;dashed=1;" vertex="1" parent="76">
                    <mxGeometry x="34" width="32" height="40" as="geometry">
                        <mxRectangle width="32" height="40" as="alternateBounds"/>
                    </mxGeometry>
                </mxCell>
                <mxCell id="79" value="2024" style="shape=partialRectangle;html=1;whiteSpace=wrap;connectable=0;overflow=hidden;fillColor=none;top=0;left=0;bottom=0;right=0;pointerEvents=1;fontFamily=palatina;fontSource=https%3A%2F%2Ffonts.googleapis.com%2Fcss%3Ffamily%3Dpalatina;resizeHeight=0;shadow=0;swimlaneLine=1;dashed=1;" vertex="1" parent="76">
                    <mxGeometry x="66" width="34" height="40" as="geometry">
                        <mxRectangle width="34" height="40" as="alternateBounds"/>
                    </mxGeometry>
                </mxCell>
                <mxCell id="80" value="" style="shape=tableRow;horizontal=0;startSize=0;swimlaneHead=0;swimlaneBody=0;top=0;left=0;bottom=0;right=0;collapsible=0;dropTarget=0;fillColor=none;points=[[0,0.5],[1,0.5]];portConstraint=eastwest;fontFamily=palatina;fontSource=https%3A%2F%2Ffonts.googleapis.com%2Fcss%3Ffamily%3Dpalatina;resizeHeight=0;shadow=0;swimlaneLine=1;dashed=1;" vertex="1" parent="71">
                    <mxGeometry y="110" width="100" height="40" as="geometry"/>
                </mxCell>
                <mxCell id="81" value="3" style="shape=partialRectangle;html=1;whiteSpace=wrap;connectable=0;overflow=hidden;fillColor=none;top=0;left=0;bottom=0;right=0;pointerEvents=1;fontFamily=palatina;fontSource=https%3A%2F%2Ffonts.googleapis.com%2Fcss%3Ffamily%3Dpalatina;resizeHeight=0;shadow=0;swimlaneLine=1;dashed=1;" vertex="1" parent="80">
                    <mxGeometry width="34" height="40" as="geometry">
                        <mxRectangle width="34" height="40" as="alternateBounds"/>
                    </mxGeometry>
                </mxCell>
                <mxCell id="82" value="11" style="shape=partialRectangle;html=1;whiteSpace=wrap;connectable=0;overflow=hidden;fillColor=none;top=0;left=0;bottom=0;right=0;pointerEvents=1;fontFamily=palatina;fontSource=https%3A%2F%2Ffonts.googleapis.com%2Fcss%3Ffamily%3Dpalatina;resizeHeight=0;shadow=0;swimlaneLine=1;dashed=1;" vertex="1" parent="80">
                    <mxGeometry x="34" width="32" height="40" as="geometry">
                        <mxRectangle width="32" height="40" as="alternateBounds"/>
                    </mxGeometry>
                </mxCell>
                <mxCell id="83" value="2024" style="shape=partialRectangle;html=1;whiteSpace=wrap;connectable=0;overflow=hidden;fillColor=none;top=0;left=0;bottom=0;right=0;pointerEvents=1;fontFamily=palatina;fontSource=https%3A%2F%2Ffonts.googleapis.com%2Fcss%3Ffamily%3Dpalatina;resizeHeight=0;shadow=0;swimlaneLine=1;dashed=1;" vertex="1" parent="80">
                    <mxGeometry x="66" width="34" height="40" as="geometry">
                        <mxRectangle width="34" height="40" as="alternateBounds"/>
                    </mxGeometry>
                </mxCell>
                <mxCell id="90" value="$$S_2$$" style="shape=table;startSize=30;container=1;collapsible=0;childLayout=tableLayout;fontFamily=palatina;html=1;fontSource=https%3A%2F%2Ffonts.googleapis.com%2Fcss%3Ffamily%3Dpalatina;resizeHeight=0;rounded=0;strokeColor=default;perimeterSpacing=12;shadow=0;swimlaneLine=1;dashed=1;" vertex="1" parent="1">
                    <mxGeometry x="300" y="30" width="80" height="190" as="geometry"/>
                </mxCell>
                <mxCell id="91" value="" style="shape=tableRow;horizontal=0;startSize=0;swimlaneHead=0;swimlaneBody=0;top=0;left=0;bottom=0;right=0;collapsible=0;dropTarget=0;fillColor=none;points=[[0,0.5],[1,0.5]];portConstraint=eastwest;fontFamily=palatina;fontSource=https%3A%2F%2Ffonts.googleapis.com%2Fcss%3Ffamily%3Dpalatina;resizeHeight=0;shadow=0;swimlaneLine=1;dashed=1;" vertex="1" parent="90">
                    <mxGeometry y="30" width="80" height="40" as="geometry"/>
                </mxCell>
                <mxCell id="92" value="2" style="shape=partialRectangle;html=1;whiteSpace=wrap;connectable=0;overflow=hidden;fillColor=none;top=0;left=0;bottom=0;right=0;pointerEvents=1;fontFamily=palatina;fontSource=https%3A%2F%2Ffonts.googleapis.com%2Fcss%3Ffamily%3Dpalatina;resizeHeight=0;shadow=0;swimlaneLine=1;dashed=1;" vertex="1" parent="91">
                    <mxGeometry width="27" height="40" as="geometry">
                        <mxRectangle width="27" height="40" as="alternateBounds"/>
                    </mxGeometry>
                </mxCell>
                <mxCell id="93" value="20" style="shape=partialRectangle;html=1;whiteSpace=wrap;connectable=0;overflow=hidden;fillColor=none;top=0;left=0;bottom=0;right=0;pointerEvents=1;fontFamily=palatina;fontSource=https%3A%2F%2Ffonts.googleapis.com%2Fcss%3Ffamily%3Dpalatina;resizeHeight=0;shadow=0;swimlaneLine=1;dashed=1;" vertex="1" parent="91">
                    <mxGeometry x="27" width="26" height="40" as="geometry">
                        <mxRectangle width="26" height="40" as="alternateBounds"/>
                    </mxGeometry>
                </mxCell>
                <mxCell id="94" value="40" style="shape=partialRectangle;html=1;whiteSpace=wrap;connectable=0;overflow=hidden;fillColor=none;top=0;left=0;bottom=0;right=0;pointerEvents=1;fontFamily=palatina;fontSource=https%3A%2F%2Ffonts.googleapis.com%2Fcss%3Ffamily%3Dpalatina;resizeHeight=0;shadow=0;swimlaneLine=1;dashed=1;" vertex="1" parent="91">
                    <mxGeometry x="53" width="27" height="40" as="geometry">
                        <mxRectangle width="27" height="40" as="alternateBounds"/>
                    </mxGeometry>
                </mxCell>
                <mxCell id="95" value="" style="shape=tableRow;horizontal=0;startSize=0;swimlaneHead=0;swimlaneBody=0;top=0;left=0;bottom=0;right=0;collapsible=0;dropTarget=0;fillColor=none;points=[[0,0.5],[1,0.5]];portConstraint=eastwest;fontFamily=palatina;fontSource=https%3A%2F%2Ffonts.googleapis.com%2Fcss%3Ffamily%3Dpalatina;resizeHeight=0;shadow=0;swimlaneLine=1;dashed=1;" vertex="1" parent="90">
                    <mxGeometry y="70" width="80" height="40" as="geometry"/>
                </mxCell>
                <mxCell id="96" value="1" style="shape=partialRectangle;html=1;whiteSpace=wrap;connectable=0;overflow=hidden;fillColor=none;top=0;left=0;bottom=0;right=0;pointerEvents=1;fontFamily=palatina;fontSource=https%3A%2F%2Ffonts.googleapis.com%2Fcss%3Ffamily%3Dpalatina;resizeHeight=0;shadow=0;swimlaneLine=1;dashed=1;" vertex="1" parent="95">
                    <mxGeometry width="27" height="40" as="geometry">
                        <mxRectangle width="27" height="40" as="alternateBounds"/>
                    </mxGeometry>
                </mxCell>
                <mxCell id="97" value="25" style="shape=partialRectangle;html=1;whiteSpace=wrap;connectable=0;overflow=hidden;fillColor=none;top=0;left=0;bottom=0;right=0;pointerEvents=1;fontFamily=palatina;fontSource=https%3A%2F%2Ffonts.googleapis.com%2Fcss%3Ffamily%3Dpalatina;resizeHeight=0;shadow=0;swimlaneLine=1;dashed=1;" vertex="1" parent="95">
                    <mxGeometry x="27" width="26" height="40" as="geometry">
                        <mxRectangle width="26" height="40" as="alternateBounds"/>
                    </mxGeometry>
                </mxCell>
                <mxCell id="98" value="25" style="shape=partialRectangle;html=1;whiteSpace=wrap;connectable=0;overflow=hidden;fillColor=none;top=0;left=0;bottom=0;right=0;pointerEvents=1;fontFamily=palatina;fontSource=https%3A%2F%2Ffonts.googleapis.com%2Fcss%3Ffamily%3Dpalatina;resizeHeight=0;shadow=0;swimlaneLine=1;dashed=1;" vertex="1" parent="95">
                    <mxGeometry x="53" width="27" height="40" as="geometry">
                        <mxRectangle width="27" height="40" as="alternateBounds"/>
                    </mxGeometry>
                </mxCell>
                <mxCell id="106" style="shape=tableRow;horizontal=0;startSize=0;swimlaneHead=0;swimlaneBody=0;top=0;left=0;bottom=0;right=0;collapsible=0;dropTarget=0;fillColor=none;points=[[0,0.5],[1,0.5]];portConstraint=eastwest;fontFamily=palatina;fontSource=https%3A%2F%2Ffonts.googleapis.com%2Fcss%3Ffamily%3Dpalatina;resizeHeight=0;shadow=0;swimlaneLine=1;dashed=1;" vertex="1" parent="90">
                    <mxGeometry y="110" width="80" height="40" as="geometry"/>
                </mxCell>
                <mxCell id="107" value="3" style="shape=partialRectangle;html=1;whiteSpace=wrap;connectable=0;overflow=hidden;fillColor=none;top=0;left=0;bottom=0;right=0;pointerEvents=1;fontFamily=palatina;fontSource=https%3A%2F%2Ffonts.googleapis.com%2Fcss%3Ffamily%3Dpalatina;resizeHeight=0;shadow=0;swimlaneLine=1;dashed=1;" vertex="1" parent="106">
                    <mxGeometry width="27" height="40" as="geometry">
                        <mxRectangle width="27" height="40" as="alternateBounds"/>
                    </mxGeometry>
                </mxCell>
                <mxCell id="108" value="13" style="shape=partialRectangle;html=1;whiteSpace=wrap;connectable=0;overflow=hidden;fillColor=none;top=0;left=0;bottom=0;right=0;pointerEvents=1;fontFamily=palatina;fontSource=https%3A%2F%2Ffonts.googleapis.com%2Fcss%3Ffamily%3Dpalatina;resizeHeight=0;shadow=0;swimlaneLine=1;dashed=1;" vertex="1" parent="106">
                    <mxGeometry x="27" width="26" height="40" as="geometry">
                        <mxRectangle width="26" height="40" as="alternateBounds"/>
                    </mxGeometry>
                </mxCell>
                <mxCell id="109" value="39" style="shape=partialRectangle;html=1;whiteSpace=wrap;connectable=0;overflow=hidden;fillColor=none;top=0;left=0;bottom=0;right=0;pointerEvents=1;fontFamily=palatina;fontSource=https%3A%2F%2Ffonts.googleapis.com%2Fcss%3Ffamily%3Dpalatina;resizeHeight=0;shadow=0;swimlaneLine=1;dashed=1;" vertex="1" parent="106">
                    <mxGeometry x="53" width="27" height="40" as="geometry">
                        <mxRectangle width="27" height="40" as="alternateBounds"/>
                    </mxGeometry>
                </mxCell>
                <mxCell id="99" value="" style="shape=tableRow;horizontal=0;startSize=0;swimlaneHead=0;swimlaneBody=0;top=0;left=0;bottom=0;right=0;collapsible=0;dropTarget=0;fillColor=none;points=[[0,0.5],[1,0.5]];portConstraint=eastwest;fontFamily=palatina;fontSource=https%3A%2F%2Ffonts.googleapis.com%2Fcss%3Ffamily%3Dpalatina;resizeHeight=0;shadow=0;swimlaneLine=1;dashed=1;" vertex="1" parent="90">
                    <mxGeometry y="150" width="80" height="40" as="geometry"/>
                </mxCell>
                <mxCell id="100" value="1" style="shape=partialRectangle;html=1;whiteSpace=wrap;connectable=0;overflow=hidden;fillColor=none;top=0;left=0;bottom=0;right=0;pointerEvents=1;fontFamily=palatina;fontSource=https%3A%2F%2Ffonts.googleapis.com%2Fcss%3Ffamily%3Dpalatina;resizeHeight=0;shadow=0;swimlaneLine=1;dashed=1;" vertex="1" parent="99">
                    <mxGeometry width="27" height="40" as="geometry">
                        <mxRectangle width="27" height="40" as="alternateBounds"/>
                    </mxGeometry>
                </mxCell>
                <mxCell id="101" value="10" style="shape=partialRectangle;html=1;whiteSpace=wrap;connectable=0;overflow=hidden;fillColor=none;top=0;left=0;bottom=0;right=0;pointerEvents=1;fontFamily=palatina;fontSource=https%3A%2F%2Ffonts.googleapis.com%2Fcss%3Ffamily%3Dpalatina;resizeHeight=0;shadow=0;swimlaneLine=1;dashed=1;" vertex="1" parent="99">
                    <mxGeometry x="27" width="26" height="40" as="geometry">
                        <mxRectangle width="26" height="40" as="alternateBounds"/>
                    </mxGeometry>
                </mxCell>
                <mxCell id="102" value="10" style="shape=partialRectangle;html=1;whiteSpace=wrap;connectable=0;overflow=hidden;fillColor=none;top=0;left=0;bottom=0;right=0;pointerEvents=1;fontFamily=palatina;fontSource=https%3A%2F%2Ffonts.googleapis.com%2Fcss%3Ffamily%3Dpalatina;resizeHeight=0;shadow=0;swimlaneLine=1;dashed=1;" vertex="1" parent="99">
                    <mxGeometry x="53" width="27" height="40" as="geometry">
                        <mxRectangle width="27" height="40" as="alternateBounds"/>
                    </mxGeometry>
                </mxCell>
                <mxCell id="103" value="$$S_3$$" style="shape=table;startSize=30;container=1;collapsible=0;childLayout=tableLayout;html=1;fontFamily=palatina;fontSource=https%3A%2F%2Ffonts.googleapis.com%2Fcss%3Ffamily%3Dpalatina;resizeHeight=0;rounded=0;strokeColor=default;perimeterSpacing=12;shadow=0;swimlaneLine=1;dashed=1;" vertex="1" parent="1">
                    <mxGeometry x="420" y="30" width="20" height="53" as="geometry"/>
                </mxCell>
                <mxCell id="104" value="" style="shape=tableRow;horizontal=0;startSize=0;swimlaneHead=0;swimlaneBody=0;top=0;left=0;bottom=0;right=0;collapsible=0;dropTarget=0;fillColor=none;points=[[0,0.5],[1,0.5]];portConstraint=eastwest;fontFamily=palatina;fontSource=https%3A%2F%2Ffonts.googleapis.com%2Fcss%3Ffamily%3Dpalatina;resizeHeight=0;shadow=0;swimlaneLine=1;dashed=1;" vertex="1" parent="103">
                    <mxGeometry y="30" width="20" height="23" as="geometry"/>
                </mxCell>
                <mxCell id="105" value="1" style="shape=partialRectangle;html=1;whiteSpace=wrap;connectable=0;overflow=hidden;fillColor=none;top=0;left=0;bottom=0;right=0;pointerEvents=1;fontFamily=palatina;fontSource=https%3A%2F%2Ffonts.googleapis.com%2Fcss%3Ffamily%3Dpalatina;resizeHeight=0;shadow=0;swimlaneLine=1;dashed=1;" vertex="1" parent="104">
                    <mxGeometry width="20" height="23" as="geometry">
                        <mxRectangle width="20" height="23" as="alternateBounds"/>
                    </mxGeometry>
                </mxCell>
                <mxCell id="110" value="$$I_1$$" style="shape=table;startSize=30;container=1;collapsible=0;childLayout=tableLayout;html=1;fontFamily=palatina;fontSource=https%3A%2F%2Ffonts.googleapis.com%2Fcss%3Ffamily%3Dpalatina;resizeHeight=0;rounded=0;strokeColor=default;perimeterSpacing=12;shadow=0;swimlaneLine=1;dashed=1;" vertex="1" parent="1">
                    <mxGeometry x="70" y="250" width="60" height="120" as="geometry"/>
                </mxCell>
                <mxCell id="111" value="" style="shape=tableRow;horizontal=0;startSize=0;swimlaneHead=0;swimlaneBody=0;top=0;left=0;bottom=0;right=0;collapsible=0;dropTarget=0;fillColor=none;points=[[0,0.5],[1,0.5]];portConstraint=eastwest;html=1;fontFamily=palatina;fontSource=https%3A%2F%2Ffonts.googleapis.com%2Fcss%3Ffamily%3Dpalatina;resizeHeight=0;shadow=0;swimlaneLine=1;dashed=1;" vertex="1" parent="110">
                    <mxGeometry y="30" width="60" height="23" as="geometry"/>
                </mxCell>
                <mxCell id="112" value="1" style="shape=partialRectangle;html=1;whiteSpace=wrap;connectable=0;overflow=hidden;fillColor=none;top=0;left=0;bottom=0;right=0;pointerEvents=1;fontFamily=palatina;fontSource=https%3A%2F%2Ffonts.googleapis.com%2Fcss%3Ffamily%3Dpalatina;resizeHeight=0;shadow=0;swimlaneLine=1;dashed=1;" vertex="1" parent="111">
                    <mxGeometry width="20" height="23" as="geometry">
                        <mxRectangle width="20" height="23" as="alternateBounds"/>
                    </mxGeometry>
                </mxCell>
                <mxCell id="113" value="0" style="shape=partialRectangle;html=1;whiteSpace=wrap;connectable=0;overflow=hidden;fillColor=none;top=0;left=0;bottom=0;right=0;pointerEvents=1;fontFamily=palatina;fontSource=https%3A%2F%2Ffonts.googleapis.com%2Fcss%3Ffamily%3Dpalatina;resizeHeight=0;shadow=0;swimlaneLine=1;dashed=1;" vertex="1" parent="111">
                    <mxGeometry x="20" width="20" height="23" as="geometry">
                        <mxRectangle width="20" height="23" as="alternateBounds"/>
                    </mxGeometry>
                </mxCell>
                <mxCell id="114" value="0" style="shape=partialRectangle;html=1;whiteSpace=wrap;connectable=0;overflow=hidden;fillColor=none;top=0;left=0;bottom=0;right=0;pointerEvents=1;fontFamily=palatina;fontSource=https%3A%2F%2Ffonts.googleapis.com%2Fcss%3Ffamily%3Dpalatina;resizeHeight=0;shadow=0;swimlaneLine=1;dashed=1;" vertex="1" parent="111">
                    <mxGeometry x="40" width="20" height="23" as="geometry">
                        <mxRectangle width="20" height="23" as="alternateBounds"/>
                    </mxGeometry>
                </mxCell>
                <mxCell id="115" value="" style="shape=tableRow;horizontal=0;startSize=0;swimlaneHead=0;swimlaneBody=0;top=0;left=0;bottom=0;right=0;collapsible=0;dropTarget=0;fillColor=none;points=[[0,0.5],[1,0.5]];portConstraint=eastwest;html=1;fontFamily=palatina;fontSource=https%3A%2F%2Ffonts.googleapis.com%2Fcss%3Ffamily%3Dpalatina;resizeHeight=0;shadow=0;swimlaneLine=1;dashed=1;" vertex="1" parent="110">
                    <mxGeometry y="53" width="60" height="22" as="geometry"/>
                </mxCell>
                <mxCell id="116" value="1" style="shape=partialRectangle;html=1;whiteSpace=wrap;connectable=0;overflow=hidden;fillColor=none;top=0;left=0;bottom=0;right=0;pointerEvents=1;fontFamily=palatina;fontSource=https%3A%2F%2Ffonts.googleapis.com%2Fcss%3Ffamily%3Dpalatina;resizeHeight=0;shadow=0;swimlaneLine=1;dashed=1;" vertex="1" parent="115">
                    <mxGeometry width="20" height="22" as="geometry">
                        <mxRectangle width="20" height="22" as="alternateBounds"/>
                    </mxGeometry>
                </mxCell>
                <mxCell id="117" value="0" style="shape=partialRectangle;html=1;whiteSpace=wrap;connectable=0;overflow=hidden;fillColor=none;top=0;left=0;bottom=0;right=0;pointerEvents=1;fontFamily=palatina;fontSource=https%3A%2F%2Ffonts.googleapis.com%2Fcss%3Ffamily%3Dpalatina;resizeHeight=0;shadow=0;swimlaneLine=1;dashed=1;" vertex="1" parent="115">
                    <mxGeometry x="20" width="20" height="22" as="geometry">
                        <mxRectangle width="20" height="22" as="alternateBounds"/>
                    </mxGeometry>
                </mxCell>
                <mxCell id="118" value="0" style="shape=partialRectangle;html=1;whiteSpace=wrap;connectable=0;overflow=hidden;fillColor=none;top=0;left=0;bottom=0;right=0;pointerEvents=1;fontFamily=palatina;fontSource=https%3A%2F%2Ffonts.googleapis.com%2Fcss%3Ffamily%3Dpalatina;resizeHeight=0;shadow=0;swimlaneLine=1;dashed=1;" vertex="1" parent="115">
                    <mxGeometry x="40" width="20" height="22" as="geometry">
                        <mxRectangle width="20" height="22" as="alternateBounds"/>
                    </mxGeometry>
                </mxCell>
                <mxCell id="119" value="" style="shape=tableRow;horizontal=0;startSize=0;swimlaneHead=0;swimlaneBody=0;top=0;left=0;bottom=0;right=0;collapsible=0;dropTarget=0;fillColor=none;points=[[0,0.5],[1,0.5]];portConstraint=eastwest;html=1;fontFamily=palatina;fontSource=https%3A%2F%2Ffonts.googleapis.com%2Fcss%3Ffamily%3Dpalatina;resizeHeight=0;shadow=0;swimlaneLine=1;dashed=1;" vertex="1" parent="110">
                    <mxGeometry y="75" width="60" height="22" as="geometry"/>
                </mxCell>
                <mxCell id="120" value="0" style="shape=partialRectangle;html=1;whiteSpace=wrap;connectable=0;overflow=hidden;fillColor=none;top=0;left=0;bottom=0;right=0;pointerEvents=1;fontFamily=palatina;fontSource=https%3A%2F%2Ffonts.googleapis.com%2Fcss%3Ffamily%3Dpalatina;resizeHeight=0;shadow=0;swimlaneLine=1;dashed=1;" vertex="1" parent="119">
                    <mxGeometry width="20" height="22" as="geometry">
                        <mxRectangle width="20" height="22" as="alternateBounds"/>
                    </mxGeometry>
                </mxCell>
                <mxCell id="121" value="1" style="shape=partialRectangle;html=1;whiteSpace=wrap;connectable=0;overflow=hidden;fillColor=none;top=0;left=0;bottom=0;right=0;pointerEvents=1;fontFamily=palatina;fontSource=https%3A%2F%2Ffonts.googleapis.com%2Fcss%3Ffamily%3Dpalatina;resizeHeight=0;shadow=0;swimlaneLine=1;dashed=1;" vertex="1" parent="119">
                    <mxGeometry x="20" width="20" height="22" as="geometry">
                        <mxRectangle width="20" height="22" as="alternateBounds"/>
                    </mxGeometry>
                </mxCell>
                <mxCell id="122" value="0" style="shape=partialRectangle;html=1;whiteSpace=wrap;connectable=0;overflow=hidden;fillColor=none;top=0;left=0;bottom=0;right=0;pointerEvents=1;fontFamily=palatina;fontSource=https%3A%2F%2Ffonts.googleapis.com%2Fcss%3Ffamily%3Dpalatina;resizeHeight=0;shadow=0;swimlaneLine=1;dashed=1;" vertex="1" parent="119">
                    <mxGeometry x="40" width="20" height="22" as="geometry">
                        <mxRectangle width="20" height="22" as="alternateBounds"/>
                    </mxGeometry>
                </mxCell>
                <mxCell id="123" value="" style="shape=tableRow;horizontal=0;startSize=0;swimlaneHead=0;swimlaneBody=0;top=0;left=0;bottom=0;right=0;collapsible=0;dropTarget=0;fillColor=none;points=[[0,0.5],[1,0.5]];portConstraint=eastwest;html=1;fontFamily=palatina;fontSource=https%3A%2F%2Ffonts.googleapis.com%2Fcss%3Ffamily%3Dpalatina;resizeHeight=0;shadow=0;swimlaneLine=1;dashed=1;" vertex="1" parent="110">
                    <mxGeometry y="97" width="60" height="23" as="geometry"/>
                </mxCell>
                <mxCell id="124" value="0" style="shape=partialRectangle;html=1;whiteSpace=wrap;connectable=0;overflow=hidden;fillColor=none;top=0;left=0;bottom=0;right=0;pointerEvents=1;fontFamily=palatina;fontSource=https%3A%2F%2Ffonts.googleapis.com%2Fcss%3Ffamily%3Dpalatina;resizeHeight=0;shadow=0;swimlaneLine=1;dashed=1;" vertex="1" parent="123">
                    <mxGeometry width="20" height="23" as="geometry">
                        <mxRectangle width="20" height="23" as="alternateBounds"/>
                    </mxGeometry>
                </mxCell>
                <mxCell id="125" value="0" style="shape=partialRectangle;html=1;whiteSpace=wrap;connectable=0;overflow=hidden;fillColor=none;top=0;left=0;bottom=0;right=0;pointerEvents=1;fontFamily=palatina;fontSource=https%3A%2F%2Ffonts.googleapis.com%2Fcss%3Ffamily%3Dpalatina;resizeHeight=0;shadow=0;swimlaneLine=1;dashed=1;" vertex="1" parent="123">
                    <mxGeometry x="20" width="20" height="23" as="geometry">
                        <mxRectangle width="20" height="23" as="alternateBounds"/>
                    </mxGeometry>
                </mxCell>
                <mxCell id="126" value="1" style="shape=partialRectangle;html=1;whiteSpace=wrap;connectable=0;overflow=hidden;fillColor=none;top=0;left=0;bottom=0;right=0;pointerEvents=1;fontFamily=palatina;fontSource=https%3A%2F%2Ffonts.googleapis.com%2Fcss%3Ffamily%3Dpalatina;resizeHeight=0;shadow=0;swimlaneLine=1;dashed=1;" vertex="1" parent="123">
                    <mxGeometry x="40" width="20" height="23" as="geometry">
                        <mxRectangle width="20" height="23" as="alternateBounds"/>
                    </mxGeometry>
                </mxCell>
                <mxCell id="127" value="$$I_2$$" style="shape=table;startSize=30;container=1;collapsible=0;childLayout=tableLayout;html=1;fontFamily=palatina;fontSource=https%3A%2F%2Ffonts.googleapis.com%2Fcss%3Ffamily%3Dpalatina;resizeHeight=0;rounded=0;strokeColor=default;perimeterSpacing=12;shadow=0;swimlaneLine=1;dashed=1;" vertex="1" parent="1">
                    <mxGeometry x="310" y="260" width="240" height="190" as="geometry"/>
                </mxCell>
                <mxCell id="128" value="" style="shape=tableRow;horizontal=0;startSize=0;swimlaneHead=0;swimlaneBody=0;top=0;left=0;bottom=0;right=0;collapsible=0;dropTarget=0;fillColor=none;points=[[0,0.5],[1,0.5]];portConstraint=eastwest;html=1;fontFamily=palatina;fontSource=https%3A%2F%2Ffonts.googleapis.com%2Fcss%3Ffamily%3Dpalatina;resizeHeight=0;shadow=0;swimlaneLine=1;dashed=1;" vertex="1" parent="127">
                    <mxGeometry y="30" width="240" height="40" as="geometry"/>
                </mxCell>
                <mxCell id="129" value="1" style="shape=partialRectangle;html=1;whiteSpace=wrap;connectable=0;overflow=hidden;fillColor=none;top=0;left=0;bottom=0;right=0;pointerEvents=1;fontFamily=palatina;fontSource=https%3A%2F%2Ffonts.googleapis.com%2Fcss%3Ffamily%3Dpalatina;resizeHeight=0;shadow=0;swimlaneLine=1;dashed=1;" vertex="1" parent="128">
                    <mxGeometry width="60" height="40" as="geometry">
                        <mxRectangle width="60" height="40" as="alternateBounds"/>
                    </mxGeometry>
                </mxCell>
                <mxCell id="130" value="0" style="shape=partialRectangle;html=1;whiteSpace=wrap;connectable=0;overflow=hidden;fillColor=none;top=0;left=0;bottom=0;right=0;pointerEvents=1;fontFamily=palatina;fontSource=https%3A%2F%2Ffonts.googleapis.com%2Fcss%3Ffamily%3Dpalatina;resizeHeight=0;shadow=0;swimlaneLine=1;dashed=1;" vertex="1" parent="128">
                    <mxGeometry x="60" width="60" height="40" as="geometry">
                        <mxRectangle width="60" height="40" as="alternateBounds"/>
                    </mxGeometry>
                </mxCell>
                <mxCell id="131" value="0" style="shape=partialRectangle;html=1;whiteSpace=wrap;connectable=0;overflow=hidden;fillColor=none;top=0;left=0;bottom=0;right=0;pointerEvents=1;fontFamily=palatina;fontSource=https%3A%2F%2Ffonts.googleapis.com%2Fcss%3Ffamily%3Dpalatina;resizeHeight=0;shadow=0;swimlaneLine=1;dashed=1;" vertex="1" parent="128">
                    <mxGeometry x="120" width="60" height="40" as="geometry">
                        <mxRectangle width="60" height="40" as="alternateBounds"/>
                    </mxGeometry>
                </mxCell>
                <mxCell id="132" value="0" style="shape=partialRectangle;html=1;whiteSpace=wrap;connectable=0;overflow=hidden;fillColor=none;top=0;left=0;bottom=0;right=0;pointerEvents=1;fontFamily=palatina;fontSource=https%3A%2F%2Ffonts.googleapis.com%2Fcss%3Ffamily%3Dpalatina;resizeHeight=0;shadow=0;swimlaneLine=1;dashed=1;" vertex="1" parent="128">
                    <mxGeometry x="180" width="60" height="40" as="geometry">
                        <mxRectangle width="60" height="40" as="alternateBounds"/>
                    </mxGeometry>
                </mxCell>
                <mxCell id="133" value="" style="shape=tableRow;horizontal=0;startSize=0;swimlaneHead=0;swimlaneBody=0;top=0;left=0;bottom=0;right=0;collapsible=0;dropTarget=0;fillColor=none;points=[[0,0.5],[1,0.5]];portConstraint=eastwest;html=1;fontFamily=palatina;fontSource=https%3A%2F%2Ffonts.googleapis.com%2Fcss%3Ffamily%3Dpalatina;resizeHeight=0;shadow=0;swimlaneLine=1;dashed=1;" vertex="1" parent="127">
                    <mxGeometry y="70" width="240" height="40" as="geometry"/>
                </mxCell>
                <mxCell id="134" value="0" style="shape=partialRectangle;html=1;whiteSpace=wrap;connectable=0;overflow=hidden;fillColor=none;top=0;left=0;bottom=0;right=0;pointerEvents=1;fontFamily=palatina;fontSource=https%3A%2F%2Ffonts.googleapis.com%2Fcss%3Ffamily%3Dpalatina;resizeHeight=0;shadow=0;swimlaneLine=1;dashed=1;" vertex="1" parent="133">
                    <mxGeometry width="60" height="40" as="geometry">
                        <mxRectangle width="60" height="40" as="alternateBounds"/>
                    </mxGeometry>
                </mxCell>
                <mxCell id="135" value="1" style="shape=partialRectangle;html=1;whiteSpace=wrap;connectable=0;overflow=hidden;fillColor=none;top=0;left=0;bottom=0;right=0;pointerEvents=1;fontFamily=palatina;fontSource=https%3A%2F%2Ffonts.googleapis.com%2Fcss%3Ffamily%3Dpalatina;resizeHeight=0;shadow=0;swimlaneLine=1;dashed=1;" vertex="1" parent="133">
                    <mxGeometry x="60" width="60" height="40" as="geometry">
                        <mxRectangle width="60" height="40" as="alternateBounds"/>
                    </mxGeometry>
                </mxCell>
                <mxCell id="136" value="0" style="shape=partialRectangle;html=1;whiteSpace=wrap;connectable=0;overflow=hidden;fillColor=none;top=0;left=0;bottom=0;right=0;pointerEvents=1;fontFamily=palatina;fontSource=https%3A%2F%2Ffonts.googleapis.com%2Fcss%3Ffamily%3Dpalatina;resizeHeight=0;shadow=0;swimlaneLine=1;dashed=1;" vertex="1" parent="133">
                    <mxGeometry x="120" width="60" height="40" as="geometry">
                        <mxRectangle width="60" height="40" as="alternateBounds"/>
                    </mxGeometry>
                </mxCell>
                <mxCell id="137" value="0" style="shape=partialRectangle;html=1;whiteSpace=wrap;connectable=0;overflow=hidden;fillColor=none;top=0;left=0;bottom=0;right=0;pointerEvents=1;fontFamily=palatina;fontSource=https%3A%2F%2Ffonts.googleapis.com%2Fcss%3Ffamily%3Dpalatina;resizeHeight=0;shadow=0;swimlaneLine=1;dashed=1;" vertex="1" parent="133">
                    <mxGeometry x="180" width="60" height="40" as="geometry">
                        <mxRectangle width="60" height="40" as="alternateBounds"/>
                    </mxGeometry>
                </mxCell>
                <mxCell id="138" value="" style="shape=tableRow;horizontal=0;startSize=0;swimlaneHead=0;swimlaneBody=0;top=0;left=0;bottom=0;right=0;collapsible=0;dropTarget=0;fillColor=none;points=[[0,0.5],[1,0.5]];portConstraint=eastwest;html=1;fontFamily=palatina;fontSource=https%3A%2F%2Ffonts.googleapis.com%2Fcss%3Ffamily%3Dpalatina;resizeHeight=0;shadow=0;swimlaneLine=1;dashed=1;" vertex="1" parent="127">
                    <mxGeometry y="110" width="240" height="40" as="geometry"/>
                </mxCell>
                <mxCell id="139" value="0" style="shape=partialRectangle;html=1;whiteSpace=wrap;connectable=0;overflow=hidden;fillColor=none;top=0;left=0;bottom=0;right=0;pointerEvents=1;fontFamily=palatina;fontSource=https%3A%2F%2Ffonts.googleapis.com%2Fcss%3Ffamily%3Dpalatina;resizeHeight=0;shadow=0;swimlaneLine=1;dashed=1;" vertex="1" parent="138">
                    <mxGeometry width="60" height="40" as="geometry">
                        <mxRectangle width="60" height="40" as="alternateBounds"/>
                    </mxGeometry>
                </mxCell>
                <mxCell id="140" value="0" style="shape=partialRectangle;html=1;whiteSpace=wrap;connectable=0;overflow=hidden;fillColor=none;top=0;left=0;bottom=0;right=0;pointerEvents=1;fontFamily=palatina;fontSource=https%3A%2F%2Ffonts.googleapis.com%2Fcss%3Ffamily%3Dpalatina;resizeHeight=0;shadow=0;swimlaneLine=1;dashed=1;" vertex="1" parent="138">
                    <mxGeometry x="60" width="60" height="40" as="geometry">
                        <mxRectangle width="60" height="40" as="alternateBounds"/>
                    </mxGeometry>
                </mxCell>
                <mxCell id="141" value="1" style="shape=partialRectangle;html=1;whiteSpace=wrap;connectable=0;overflow=hidden;fillColor=none;top=0;left=0;bottom=0;right=0;pointerEvents=1;fontFamily=palatina;fontSource=https%3A%2F%2Ffonts.googleapis.com%2Fcss%3Ffamily%3Dpalatina;resizeHeight=0;shadow=0;swimlaneLine=1;dashed=1;" vertex="1" parent="138">
                    <mxGeometry x="120" width="60" height="40" as="geometry">
                        <mxRectangle width="60" height="40" as="alternateBounds"/>
                    </mxGeometry>
                </mxCell>
                <mxCell id="142" value="0" style="shape=partialRectangle;html=1;whiteSpace=wrap;connectable=0;overflow=hidden;fillColor=none;top=0;left=0;bottom=0;right=0;pointerEvents=1;fontFamily=palatina;fontSource=https%3A%2F%2Ffonts.googleapis.com%2Fcss%3Ffamily%3Dpalatina;resizeHeight=0;shadow=0;swimlaneLine=1;dashed=1;" vertex="1" parent="138">
                    <mxGeometry x="180" width="60" height="40" as="geometry">
                        <mxRectangle width="60" height="40" as="alternateBounds"/>
                    </mxGeometry>
                </mxCell>
                <mxCell id="143" value="" style="shape=tableRow;horizontal=0;startSize=0;swimlaneHead=0;swimlaneBody=0;top=0;left=0;bottom=0;right=0;collapsible=0;dropTarget=0;fillColor=none;points=[[0,0.5],[1,0.5]];portConstraint=eastwest;html=1;fontFamily=palatina;fontSource=https%3A%2F%2Ffonts.googleapis.com%2Fcss%3Ffamily%3Dpalatina;resizeHeight=0;shadow=0;swimlaneLine=1;dashed=1;" vertex="1" parent="127">
                    <mxGeometry y="150" width="240" height="40" as="geometry"/>
                </mxCell>
                <mxCell id="144" value="0" style="shape=partialRectangle;html=1;whiteSpace=wrap;connectable=0;overflow=hidden;fillColor=none;top=0;left=0;bottom=0;right=0;pointerEvents=1;fontFamily=palatina;fontSource=https%3A%2F%2Ffonts.googleapis.com%2Fcss%3Ffamily%3Dpalatina;resizeHeight=0;shadow=0;swimlaneLine=1;dashed=1;" vertex="1" parent="143">
                    <mxGeometry width="60" height="40" as="geometry">
                        <mxRectangle width="60" height="40" as="alternateBounds"/>
                    </mxGeometry>
                </mxCell>
                <mxCell id="145" value="0" style="shape=partialRectangle;html=1;whiteSpace=wrap;connectable=0;overflow=hidden;fillColor=none;top=0;left=0;bottom=0;right=0;pointerEvents=1;fontFamily=palatina;fontSource=https%3A%2F%2Ffonts.googleapis.com%2Fcss%3Ffamily%3Dpalatina;resizeHeight=0;shadow=0;swimlaneLine=1;dashed=1;" vertex="1" parent="143">
                    <mxGeometry x="60" width="60" height="40" as="geometry">
                        <mxRectangle width="60" height="40" as="alternateBounds"/>
                    </mxGeometry>
                </mxCell>
                <mxCell id="146" value="0" style="shape=partialRectangle;html=1;whiteSpace=wrap;connectable=0;overflow=hidden;fillColor=none;top=0;left=0;bottom=0;right=0;pointerEvents=1;fontFamily=palatina;fontSource=https%3A%2F%2Ffonts.googleapis.com%2Fcss%3Ffamily%3Dpalatina;resizeHeight=0;shadow=0;swimlaneLine=1;dashed=1;" vertex="1" parent="143">
                    <mxGeometry x="120" width="60" height="40" as="geometry">
                        <mxRectangle width="60" height="40" as="alternateBounds"/>
                    </mxGeometry>
                </mxCell>
                <mxCell id="147" value="1" style="shape=partialRectangle;html=1;whiteSpace=wrap;connectable=0;overflow=hidden;fillColor=none;top=0;left=0;bottom=0;right=0;pointerEvents=1;fontFamily=palatina;fontSource=https%3A%2F%2Ffonts.googleapis.com%2Fcss%3Ffamily%3Dpalatina;resizeHeight=0;shadow=0;swimlaneLine=1;dashed=1;" vertex="1" parent="143">
                    <mxGeometry x="180" width="60" height="40" as="geometry">
                        <mxRectangle width="60" height="40" as="alternateBounds"/>
                    </mxGeometry>
                </mxCell>
                <mxCell id="148" value="$$I_3$$" style="shape=table;startSize=30;container=1;collapsible=0;childLayout=tableLayout;html=1;fontFamily=palatina;fontSource=https%3A%2F%2Ffonts.googleapis.com%2Fcss%3Ffamily%3Dpalatina;resizeHeight=0;rounded=0;strokeColor=default;perimeterSpacing=12;shadow=0;swimlaneLine=1;dashed=1;" vertex="1" parent="1">
                    <mxGeometry x="600" y="260" width="60" height="190" as="geometry"/>
                </mxCell>
                <mxCell id="149" value="" style="shape=tableRow;horizontal=0;startSize=0;swimlaneHead=0;swimlaneBody=0;top=0;left=0;bottom=0;right=0;collapsible=0;dropTarget=0;fillColor=none;points=[[0,0.5],[1,0.5]];portConstraint=eastwest;html=1;fontFamily=palatina;fontSource=https%3A%2F%2Ffonts.googleapis.com%2Fcss%3Ffamily%3Dpalatina;resizeHeight=0;shadow=0;swimlaneLine=1;dashed=1;" vertex="1" parent="148">
                    <mxGeometry y="30" width="60" height="40" as="geometry"/>
                </mxCell>
                <mxCell id="150" value="0" style="shape=partialRectangle;html=1;whiteSpace=wrap;connectable=0;overflow=hidden;fillColor=none;top=0;left=0;bottom=0;right=0;pointerEvents=1;fontFamily=palatina;fontSource=https%3A%2F%2Ffonts.googleapis.com%2Fcss%3Ffamily%3Dpalatina;resizeHeight=0;shadow=0;swimlaneLine=1;dashed=1;" vertex="1" parent="149">
                    <mxGeometry width="60" height="40" as="geometry">
                        <mxRectangle width="60" height="40" as="alternateBounds"/>
                    </mxGeometry>
                </mxCell>
                <mxCell id="151" value="" style="shape=tableRow;horizontal=0;startSize=0;swimlaneHead=0;swimlaneBody=0;top=0;left=0;bottom=0;right=0;collapsible=0;dropTarget=0;fillColor=none;points=[[0,0.5],[1,0.5]];portConstraint=eastwest;html=1;fontFamily=palatina;fontSource=https%3A%2F%2Ffonts.googleapis.com%2Fcss%3Ffamily%3Dpalatina;resizeHeight=0;shadow=0;swimlaneLine=1;dashed=1;" vertex="1" parent="148">
                    <mxGeometry y="70" width="60" height="40" as="geometry"/>
                </mxCell>
                <mxCell id="152" value="0" style="shape=partialRectangle;html=1;whiteSpace=wrap;connectable=0;overflow=hidden;fillColor=none;top=0;left=0;bottom=0;right=0;pointerEvents=1;fontFamily=palatina;fontSource=https%3A%2F%2Ffonts.googleapis.com%2Fcss%3Ffamily%3Dpalatina;resizeHeight=0;shadow=0;swimlaneLine=1;dashed=1;" vertex="1" parent="151">
                    <mxGeometry width="60" height="40" as="geometry">
                        <mxRectangle width="60" height="40" as="alternateBounds"/>
                    </mxGeometry>
                </mxCell>
                <mxCell id="153" value="" style="shape=tableRow;horizontal=0;startSize=0;swimlaneHead=0;swimlaneBody=0;top=0;left=0;bottom=0;right=0;collapsible=0;dropTarget=0;fillColor=none;points=[[0,0.5],[1,0.5]];portConstraint=eastwest;html=1;fontFamily=palatina;fontSource=https%3A%2F%2Ffonts.googleapis.com%2Fcss%3Ffamily%3Dpalatina;resizeHeight=0;shadow=0;swimlaneLine=1;dashed=1;" vertex="1" parent="148">
                    <mxGeometry y="110" width="60" height="40" as="geometry"/>
                </mxCell>
                <mxCell id="154" value="0" style="shape=partialRectangle;html=1;whiteSpace=wrap;connectable=0;overflow=hidden;fillColor=none;top=0;left=0;bottom=0;right=0;pointerEvents=1;fontFamily=palatina;fontSource=https%3A%2F%2Ffonts.googleapis.com%2Fcss%3Ffamily%3Dpalatina;resizeHeight=0;shadow=0;swimlaneLine=1;dashed=1;" vertex="1" parent="153">
                    <mxGeometry width="60" height="40" as="geometry">
                        <mxRectangle width="60" height="40" as="alternateBounds"/>
                    </mxGeometry>
                </mxCell>
                <mxCell id="155" value="" style="shape=tableRow;horizontal=0;startSize=0;swimlaneHead=0;swimlaneBody=0;top=0;left=0;bottom=0;right=0;collapsible=0;dropTarget=0;fillColor=none;points=[[0,0.5],[1,0.5]];portConstraint=eastwest;html=1;fontFamily=palatina;fontSource=https%3A%2F%2Ffonts.googleapis.com%2Fcss%3Ffamily%3Dpalatina;resizeHeight=0;shadow=0;swimlaneLine=1;dashed=1;" vertex="1" parent="148">
                    <mxGeometry y="150" width="60" height="40" as="geometry"/>
                </mxCell>
                <mxCell id="156" value="1" style="shape=partialRectangle;html=1;whiteSpace=wrap;connectable=0;overflow=hidden;fillColor=none;top=0;left=0;bottom=0;right=0;pointerEvents=1;fontFamily=palatina;fontSource=https%3A%2F%2Ffonts.googleapis.com%2Fcss%3Ffamily%3Dpalatina;resizeHeight=0;shadow=0;swimlaneLine=1;dashed=1;" vertex="1" parent="155">
                    <mxGeometry width="60" height="40" as="geometry">
                        <mxRectangle width="60" height="40" as="alternateBounds"/>
                    </mxGeometry>
                </mxCell>
                <mxCell id="157" value="$$M_1$$" style="shape=table;startSize=30;container=1;collapsible=0;childLayout=tableLayout;html=1;fontFamily=palatina;fontSource=https%3A%2F%2Ffonts.googleapis.com%2Fcss%3Ffamily%3Dpalatina;resizeHeight=0;rounded=0;strokeColor=default;perimeterSpacing=12;shadow=0;swimlaneLine=1;dashed=1;" vertex="1" parent="1">
                    <mxGeometry x="70" y="490" width="180" height="310" as="geometry"/>
                </mxCell>
                <mxCell id="158" value="" style="shape=tableRow;horizontal=0;startSize=0;swimlaneHead=0;swimlaneBody=0;top=0;left=0;bottom=0;right=0;collapsible=0;dropTarget=0;fillColor=none;points=[[0,0.5],[1,0.5]];portConstraint=eastwest;html=1;fontFamily=palatina;fontSource=https%3A%2F%2Ffonts.googleapis.com%2Fcss%3Ffamily%3Dpalatina;resizeHeight=0;shadow=0;swimlaneLine=1;dashed=1;" vertex="1" parent="157">
                    <mxGeometry y="30" width="180" height="40" as="geometry"/>
                </mxCell>
                <mxCell id="159" value="0" style="shape=partialRectangle;html=1;whiteSpace=wrap;connectable=0;overflow=hidden;fillColor=none;top=0;left=0;bottom=0;right=0;pointerEvents=1;fontFamily=palatina;fontSource=https%3A%2F%2Ffonts.googleapis.com%2Fcss%3Ffamily%3Dpalatina;resizeHeight=0;shadow=0;swimlaneLine=1;dashed=1;" vertex="1" parent="158">
                    <mxGeometry width="60" height="40" as="geometry">
                        <mxRectangle width="60" height="40" as="alternateBounds"/>
                    </mxGeometry>
                </mxCell>
                <mxCell id="160" value="0" style="shape=partialRectangle;html=1;whiteSpace=wrap;connectable=0;overflow=hidden;fillColor=none;top=0;left=0;bottom=0;right=0;pointerEvents=1;fontFamily=palatina;fontSource=https%3A%2F%2Ffonts.googleapis.com%2Fcss%3Ffamily%3Dpalatina;resizeHeight=0;shadow=0;swimlaneLine=1;dashed=1;" vertex="1" parent="158">
                    <mxGeometry x="60" width="60" height="40" as="geometry">
                        <mxRectangle width="60" height="40" as="alternateBounds"/>
                    </mxGeometry>
                </mxCell>
                <mxCell id="161" value="0" style="shape=partialRectangle;html=1;whiteSpace=wrap;connectable=0;overflow=hidden;fillColor=none;top=0;left=0;bottom=0;right=0;pointerEvents=1;fontFamily=palatina;fontSource=https%3A%2F%2Ffonts.googleapis.com%2Fcss%3Ffamily%3Dpalatina;resizeHeight=0;shadow=0;swimlaneLine=1;dashed=1;" vertex="1" parent="158">
                    <mxGeometry x="120" width="60" height="40" as="geometry">
                        <mxRectangle width="60" height="40" as="alternateBounds"/>
                    </mxGeometry>
                </mxCell>
                <mxCell id="162" value="" style="shape=tableRow;horizontal=0;startSize=0;swimlaneHead=0;swimlaneBody=0;top=0;left=0;bottom=0;right=0;collapsible=0;dropTarget=0;fillColor=none;points=[[0,0.5],[1,0.5]];portConstraint=eastwest;html=1;fontFamily=palatina;fontSource=https%3A%2F%2Ffonts.googleapis.com%2Fcss%3Ffamily%3Dpalatina;resizeHeight=0;shadow=0;swimlaneLine=1;dashed=1;" vertex="1" parent="157">
                    <mxGeometry y="70" width="180" height="40" as="geometry"/>
                </mxCell>
                <mxCell id="163" value="0" style="shape=partialRectangle;html=1;whiteSpace=wrap;connectable=0;overflow=hidden;fillColor=none;top=0;left=0;bottom=0;right=0;pointerEvents=1;fontFamily=palatina;fontSource=https%3A%2F%2Ffonts.googleapis.com%2Fcss%3Ffamily%3Dpalatina;resizeHeight=0;shadow=0;swimlaneLine=1;dashed=1;" vertex="1" parent="162">
                    <mxGeometry width="60" height="40" as="geometry">
                        <mxRectangle width="60" height="40" as="alternateBounds"/>
                    </mxGeometry>
                </mxCell>
                <mxCell id="164" value="0" style="shape=partialRectangle;html=1;whiteSpace=wrap;connectable=0;overflow=hidden;fillColor=none;top=0;left=0;bottom=0;right=0;pointerEvents=1;fontFamily=palatina;fontSource=https%3A%2F%2Ffonts.googleapis.com%2Fcss%3Ffamily%3Dpalatina;resizeHeight=0;shadow=0;swimlaneLine=1;dashed=1;" vertex="1" parent="162">
                    <mxGeometry x="60" width="60" height="40" as="geometry">
                        <mxRectangle width="60" height="40" as="alternateBounds"/>
                    </mxGeometry>
                </mxCell>
                <mxCell id="165" value="0" style="shape=partialRectangle;html=1;whiteSpace=wrap;connectable=0;overflow=hidden;fillColor=none;top=0;left=0;bottom=0;right=0;pointerEvents=1;fontFamily=palatina;fontSource=https%3A%2F%2Ffonts.googleapis.com%2Fcss%3Ffamily%3Dpalatina;resizeHeight=0;shadow=0;swimlaneLine=1;dashed=1;" vertex="1" parent="162">
                    <mxGeometry x="120" width="60" height="40" as="geometry">
                        <mxRectangle width="60" height="40" as="alternateBounds"/>
                    </mxGeometry>
                </mxCell>
                <mxCell id="166" value="" style="shape=tableRow;horizontal=0;startSize=0;swimlaneHead=0;swimlaneBody=0;top=0;left=0;bottom=0;right=0;collapsible=0;dropTarget=0;fillColor=none;points=[[0,0.5],[1,0.5]];portConstraint=eastwest;html=1;fontFamily=palatina;fontSource=https%3A%2F%2Ffonts.googleapis.com%2Fcss%3Ffamily%3Dpalatina;resizeHeight=0;shadow=0;swimlaneLine=1;dashed=1;" vertex="1" parent="157">
                    <mxGeometry y="110" width="180" height="40" as="geometry"/>
                </mxCell>
                <mxCell id="167" value="0" style="shape=partialRectangle;html=1;whiteSpace=wrap;connectable=0;overflow=hidden;fillColor=none;top=0;left=0;bottom=0;right=0;pointerEvents=1;fontFamily=palatina;fontSource=https%3A%2F%2Ffonts.googleapis.com%2Fcss%3Ffamily%3Dpalatina;resizeHeight=0;shadow=0;swimlaneLine=1;dashed=1;" vertex="1" parent="166">
                    <mxGeometry width="60" height="40" as="geometry">
                        <mxRectangle width="60" height="40" as="alternateBounds"/>
                    </mxGeometry>
                </mxCell>
                <mxCell id="168" value="0" style="shape=partialRectangle;html=1;whiteSpace=wrap;connectable=0;overflow=hidden;fillColor=none;top=0;left=0;bottom=0;right=0;pointerEvents=1;fontFamily=palatina;fontSource=https%3A%2F%2Ffonts.googleapis.com%2Fcss%3Ffamily%3Dpalatina;resizeHeight=0;shadow=0;swimlaneLine=1;dashed=1;" vertex="1" parent="166">
                    <mxGeometry x="60" width="60" height="40" as="geometry">
                        <mxRectangle width="60" height="40" as="alternateBounds"/>
                    </mxGeometry>
                </mxCell>
                <mxCell id="169" value="0" style="shape=partialRectangle;html=1;whiteSpace=wrap;connectable=0;overflow=hidden;fillColor=none;top=0;left=0;bottom=0;right=0;pointerEvents=1;fontFamily=palatina;fontSource=https%3A%2F%2Ffonts.googleapis.com%2Fcss%3Ffamily%3Dpalatina;resizeHeight=0;shadow=0;swimlaneLine=1;dashed=1;" vertex="1" parent="166">
                    <mxGeometry x="120" width="60" height="40" as="geometry">
                        <mxRectangle width="60" height="40" as="alternateBounds"/>
                    </mxGeometry>
                </mxCell>
                <mxCell id="170" value="" style="shape=tableRow;horizontal=0;startSize=0;swimlaneHead=0;swimlaneBody=0;top=0;left=0;bottom=0;right=0;collapsible=0;dropTarget=0;fillColor=none;points=[[0,0.5],[1,0.5]];portConstraint=eastwest;html=1;fontFamily=palatina;fontSource=https%3A%2F%2Ffonts.googleapis.com%2Fcss%3Ffamily%3Dpalatina;resizeHeight=0;shadow=0;swimlaneLine=1;dashed=1;" vertex="1" parent="157">
                    <mxGeometry y="150" width="180" height="40" as="geometry"/>
                </mxCell>
                <mxCell id="171" value="1" style="shape=partialRectangle;html=1;whiteSpace=wrap;connectable=0;overflow=hidden;fillColor=none;top=0;left=0;bottom=0;right=0;pointerEvents=1;fontFamily=palatina;fontSource=https%3A%2F%2Ffonts.googleapis.com%2Fcss%3Ffamily%3Dpalatina;resizeHeight=0;shadow=0;swimlaneLine=1;dashed=1;" vertex="1" parent="170">
                    <mxGeometry width="60" height="40" as="geometry">
                        <mxRectangle width="60" height="40" as="alternateBounds"/>
                    </mxGeometry>
                </mxCell>
                <mxCell id="172" value="0" style="shape=partialRectangle;html=1;whiteSpace=wrap;connectable=0;overflow=hidden;fillColor=none;top=0;left=0;bottom=0;right=0;pointerEvents=1;fontFamily=palatina;fontSource=https%3A%2F%2Ffonts.googleapis.com%2Fcss%3Ffamily%3Dpalatina;resizeHeight=0;shadow=0;swimlaneLine=1;dashed=1;" vertex="1" parent="170">
                    <mxGeometry x="60" width="60" height="40" as="geometry">
                        <mxRectangle width="60" height="40" as="alternateBounds"/>
                    </mxGeometry>
                </mxCell>
                <mxCell id="173" value="0" style="shape=partialRectangle;html=1;whiteSpace=wrap;connectable=0;overflow=hidden;fillColor=none;top=0;left=0;bottom=0;right=0;pointerEvents=1;fontFamily=palatina;fontSource=https%3A%2F%2Ffonts.googleapis.com%2Fcss%3Ffamily%3Dpalatina;resizeHeight=0;shadow=0;swimlaneLine=1;dashed=1;" vertex="1" parent="170">
                    <mxGeometry x="120" width="60" height="40" as="geometry">
                        <mxRectangle width="60" height="40" as="alternateBounds"/>
                    </mxGeometry>
                </mxCell>
                <mxCell id="174" value="" style="shape=tableRow;horizontal=0;startSize=0;swimlaneHead=0;swimlaneBody=0;top=0;left=0;bottom=0;right=0;collapsible=0;dropTarget=0;fillColor=none;points=[[0,0.5],[1,0.5]];portConstraint=eastwest;html=1;fontFamily=palatina;fontSource=https%3A%2F%2Ffonts.googleapis.com%2Fcss%3Ffamily%3Dpalatina;resizeHeight=0;shadow=0;swimlaneLine=1;dashed=1;" vertex="1" parent="157">
                    <mxGeometry y="190" width="180" height="40" as="geometry"/>
                </mxCell>
                <mxCell id="175" value="0" style="shape=partialRectangle;html=1;whiteSpace=wrap;connectable=0;overflow=hidden;fillColor=none;top=0;left=0;bottom=0;right=0;pointerEvents=1;fontFamily=palatina;fontSource=https%3A%2F%2Ffonts.googleapis.com%2Fcss%3Ffamily%3Dpalatina;resizeHeight=0;shadow=0;swimlaneLine=1;dashed=1;" vertex="1" parent="174">
                    <mxGeometry width="60" height="40" as="geometry">
                        <mxRectangle width="60" height="40" as="alternateBounds"/>
                    </mxGeometry>
                </mxCell>
                <mxCell id="176" value="1" style="shape=partialRectangle;html=1;whiteSpace=wrap;connectable=0;overflow=hidden;fillColor=none;top=0;left=0;bottom=0;right=0;pointerEvents=1;fontFamily=palatina;fontSource=https%3A%2F%2Ffonts.googleapis.com%2Fcss%3Ffamily%3Dpalatina;resizeHeight=0;shadow=0;swimlaneLine=1;dashed=1;" vertex="1" parent="174">
                    <mxGeometry x="60" width="60" height="40" as="geometry">
                        <mxRectangle width="60" height="40" as="alternateBounds"/>
                    </mxGeometry>
                </mxCell>
                <mxCell id="177" value="0" style="shape=partialRectangle;html=1;whiteSpace=wrap;connectable=0;overflow=hidden;fillColor=none;top=0;left=0;bottom=0;right=0;pointerEvents=1;fontFamily=palatina;fontSource=https%3A%2F%2Ffonts.googleapis.com%2Fcss%3Ffamily%3Dpalatina;resizeHeight=0;shadow=0;swimlaneLine=1;dashed=1;" vertex="1" parent="174">
                    <mxGeometry x="120" width="60" height="40" as="geometry">
                        <mxRectangle width="60" height="40" as="alternateBounds"/>
                    </mxGeometry>
                </mxCell>
                <mxCell id="178" value="" style="shape=tableRow;horizontal=0;startSize=0;swimlaneHead=0;swimlaneBody=0;top=0;left=0;bottom=0;right=0;collapsible=0;dropTarget=0;fillColor=none;points=[[0,0.5],[1,0.5]];portConstraint=eastwest;html=1;fontFamily=palatina;fontSource=https%3A%2F%2Ffonts.googleapis.com%2Fcss%3Ffamily%3Dpalatina;resizeHeight=0;shadow=0;swimlaneLine=1;dashed=1;" vertex="1" parent="157">
                    <mxGeometry y="230" width="180" height="40" as="geometry"/>
                </mxCell>
                <mxCell id="179" value="0" style="shape=partialRectangle;html=1;whiteSpace=wrap;connectable=0;overflow=hidden;fillColor=none;top=0;left=0;bottom=0;right=0;pointerEvents=1;fontFamily=palatina;fontSource=https%3A%2F%2Ffonts.googleapis.com%2Fcss%3Ffamily%3Dpalatina;resizeHeight=0;shadow=0;swimlaneLine=1;dashed=1;" vertex="1" parent="178">
                    <mxGeometry width="60" height="40" as="geometry">
                        <mxRectangle width="60" height="40" as="alternateBounds"/>
                    </mxGeometry>
                </mxCell>
                <mxCell id="180" value="0" style="shape=partialRectangle;html=1;whiteSpace=wrap;connectable=0;overflow=hidden;fillColor=none;top=0;left=0;bottom=0;right=0;pointerEvents=1;fontFamily=palatina;fontSource=https%3A%2F%2Ffonts.googleapis.com%2Fcss%3Ffamily%3Dpalatina;resizeHeight=0;shadow=0;swimlaneLine=1;dashed=1;" vertex="1" parent="178">
                    <mxGeometry x="60" width="60" height="40" as="geometry">
                        <mxRectangle width="60" height="40" as="alternateBounds"/>
                    </mxGeometry>
                </mxCell>
                <mxCell id="181" value="1" style="shape=partialRectangle;html=1;whiteSpace=wrap;connectable=0;overflow=hidden;fillColor=none;top=0;left=0;bottom=0;right=0;pointerEvents=1;fontFamily=palatina;fontSource=https%3A%2F%2Ffonts.googleapis.com%2Fcss%3Ffamily%3Dpalatina;resizeHeight=0;shadow=0;swimlaneLine=1;dashed=1;" vertex="1" parent="178">
                    <mxGeometry x="120" width="60" height="40" as="geometry">
                        <mxRectangle width="60" height="40" as="alternateBounds"/>
                    </mxGeometry>
                </mxCell>
                <mxCell id="182" value="" style="shape=tableRow;horizontal=0;startSize=0;swimlaneHead=0;swimlaneBody=0;top=0;left=0;bottom=0;right=0;collapsible=0;dropTarget=0;fillColor=none;points=[[0,0.5],[1,0.5]];portConstraint=eastwest;html=1;fontFamily=palatina;fontSource=https%3A%2F%2Ffonts.googleapis.com%2Fcss%3Ffamily%3Dpalatina;resizeHeight=0;shadow=0;swimlaneLine=1;dashed=1;" vertex="1" parent="157">
                    <mxGeometry y="270" width="180" height="40" as="geometry"/>
                </mxCell>
                <mxCell id="183" value="0" style="shape=partialRectangle;html=1;whiteSpace=wrap;connectable=0;overflow=hidden;fillColor=none;top=0;left=0;bottom=0;right=0;pointerEvents=1;fontFamily=palatina;fontSource=https%3A%2F%2Ffonts.googleapis.com%2Fcss%3Ffamily%3Dpalatina;resizeHeight=0;shadow=0;swimlaneLine=1;dashed=1;" vertex="1" parent="182">
                    <mxGeometry width="60" height="40" as="geometry">
                        <mxRectangle width="60" height="40" as="alternateBounds"/>
                    </mxGeometry>
                </mxCell>
                <mxCell id="184" value="0" style="shape=partialRectangle;html=1;whiteSpace=wrap;connectable=0;overflow=hidden;fillColor=none;top=0;left=0;bottom=0;right=0;pointerEvents=1;fontFamily=palatina;fontSource=https%3A%2F%2Ffonts.googleapis.com%2Fcss%3Ffamily%3Dpalatina;resizeHeight=0;shadow=0;swimlaneLine=1;dashed=1;" vertex="1" parent="182">
                    <mxGeometry x="60" width="60" height="40" as="geometry">
                        <mxRectangle width="60" height="40" as="alternateBounds"/>
                    </mxGeometry>
                </mxCell>
                <mxCell id="185" value="0" style="shape=partialRectangle;html=1;whiteSpace=wrap;connectable=0;overflow=hidden;fillColor=none;top=0;left=0;bottom=0;right=0;pointerEvents=1;fontFamily=palatina;fontSource=https%3A%2F%2Ffonts.googleapis.com%2Fcss%3Ffamily%3Dpalatina;resizeHeight=0;shadow=0;swimlaneLine=1;dashed=1;" vertex="1" parent="182">
                    <mxGeometry x="120" width="60" height="40" as="geometry">
                        <mxRectangle width="60" height="40" as="alternateBounds"/>
                    </mxGeometry>
                </mxCell>
                <mxCell id="186" value="$$M_2$$" style="shape=table;startSize=30;container=1;collapsible=0;childLayout=tableLayout;html=1;fontFamily=palatina;fontSource=https%3A%2F%2Ffonts.googleapis.com%2Fcss%3Ffamily%3Dpalatina;resizeHeight=0;rounded=0;strokeColor=default;perimeterSpacing=12;shadow=0;swimlaneLine=1;dashed=1;" vertex="1" parent="1">
                    <mxGeometry x="324" y="490" width="180" height="310" as="geometry"/>
                </mxCell>
                <mxCell id="187" value="" style="shape=tableRow;horizontal=0;startSize=0;swimlaneHead=0;swimlaneBody=0;top=0;left=0;bottom=0;right=0;collapsible=0;dropTarget=0;fillColor=none;points=[[0,0.5],[1,0.5]];portConstraint=eastwest;html=1;fontFamily=palatina;fontSource=https%3A%2F%2Ffonts.googleapis.com%2Fcss%3Ffamily%3Dpalatina;resizeHeight=0;shadow=0;swimlaneLine=1;dashed=1;" vertex="1" parent="186">
                    <mxGeometry y="30" width="180" height="40" as="geometry"/>
                </mxCell>
                <mxCell id="188" value="1" style="shape=partialRectangle;html=1;whiteSpace=wrap;connectable=0;overflow=hidden;fillColor=none;top=0;left=0;bottom=0;right=0;pointerEvents=1;fontFamily=palatina;fontSource=https%3A%2F%2Ffonts.googleapis.com%2Fcss%3Ffamily%3Dpalatina;resizeHeight=0;shadow=0;swimlaneLine=1;dashed=1;" vertex="1" parent="187">
                    <mxGeometry width="60" height="40" as="geometry">
                        <mxRectangle width="60" height="40" as="alternateBounds"/>
                    </mxGeometry>
                </mxCell>
                <mxCell id="189" value="0" style="shape=partialRectangle;html=1;whiteSpace=wrap;connectable=0;overflow=hidden;fillColor=none;top=0;left=0;bottom=0;right=0;pointerEvents=1;fontFamily=palatina;fontSource=https%3A%2F%2Ffonts.googleapis.com%2Fcss%3Ffamily%3Dpalatina;resizeHeight=0;shadow=0;swimlaneLine=1;dashed=1;" vertex="1" parent="187">
                    <mxGeometry x="60" width="60" height="40" as="geometry">
                        <mxRectangle width="60" height="40" as="alternateBounds"/>
                    </mxGeometry>
                </mxCell>
                <mxCell id="190" value="0" style="shape=partialRectangle;html=1;whiteSpace=wrap;connectable=0;overflow=hidden;fillColor=none;top=0;left=0;bottom=0;right=0;pointerEvents=1;fontFamily=palatina;fontSource=https%3A%2F%2Ffonts.googleapis.com%2Fcss%3Ffamily%3Dpalatina;resizeHeight=0;shadow=0;swimlaneLine=1;dashed=1;" vertex="1" parent="187">
                    <mxGeometry x="120" width="60" height="40" as="geometry">
                        <mxRectangle width="60" height="40" as="alternateBounds"/>
                    </mxGeometry>
                </mxCell>
                <mxCell id="191" value="" style="shape=tableRow;horizontal=0;startSize=0;swimlaneHead=0;swimlaneBody=0;top=0;left=0;bottom=0;right=0;collapsible=0;dropTarget=0;fillColor=none;points=[[0,0.5],[1,0.5]];portConstraint=eastwest;html=1;fontFamily=palatina;fontSource=https%3A%2F%2Ffonts.googleapis.com%2Fcss%3Ffamily%3Dpalatina;resizeHeight=0;shadow=0;swimlaneLine=1;dashed=1;" vertex="1" parent="186">
                    <mxGeometry y="70" width="180" height="40" as="geometry"/>
                </mxCell>
                <mxCell id="192" value="0" style="shape=partialRectangle;html=1;whiteSpace=wrap;connectable=0;overflow=hidden;fillColor=none;top=0;left=0;bottom=0;right=0;pointerEvents=1;fontFamily=palatina;fontSource=https%3A%2F%2Ffonts.googleapis.com%2Fcss%3Ffamily%3Dpalatina;resizeHeight=0;shadow=0;swimlaneLine=1;dashed=1;" vertex="1" parent="191">
                    <mxGeometry width="60" height="40" as="geometry">
                        <mxRectangle width="60" height="40" as="alternateBounds"/>
                    </mxGeometry>
                </mxCell>
                <mxCell id="193" value="1" style="shape=partialRectangle;html=1;whiteSpace=wrap;connectable=0;overflow=hidden;fillColor=none;top=0;left=0;bottom=0;right=0;pointerEvents=1;fontFamily=palatina;fontSource=https%3A%2F%2Ffonts.googleapis.com%2Fcss%3Ffamily%3Dpalatina;resizeHeight=0;shadow=0;swimlaneLine=1;dashed=1;" vertex="1" parent="191">
                    <mxGeometry x="60" width="60" height="40" as="geometry">
                        <mxRectangle width="60" height="40" as="alternateBounds"/>
                    </mxGeometry>
                </mxCell>
                <mxCell id="194" value="0" style="shape=partialRectangle;html=1;whiteSpace=wrap;connectable=0;overflow=hidden;fillColor=none;top=0;left=0;bottom=0;right=0;pointerEvents=1;fontFamily=palatina;fontSource=https%3A%2F%2Ffonts.googleapis.com%2Fcss%3Ffamily%3Dpalatina;resizeHeight=0;shadow=0;swimlaneLine=1;dashed=1;" vertex="1" parent="191">
                    <mxGeometry x="120" width="60" height="40" as="geometry">
                        <mxRectangle width="60" height="40" as="alternateBounds"/>
                    </mxGeometry>
                </mxCell>
                <mxCell id="195" value="" style="shape=tableRow;horizontal=0;startSize=0;swimlaneHead=0;swimlaneBody=0;top=0;left=0;bottom=0;right=0;collapsible=0;dropTarget=0;fillColor=none;points=[[0,0.5],[1,0.5]];portConstraint=eastwest;html=1;fontFamily=palatina;fontSource=https%3A%2F%2Ffonts.googleapis.com%2Fcss%3Ffamily%3Dpalatina;resizeHeight=0;shadow=0;swimlaneLine=1;dashed=1;" vertex="1" parent="186">
                    <mxGeometry y="110" width="180" height="40" as="geometry"/>
                </mxCell>
                <mxCell id="196" value="0" style="shape=partialRectangle;html=1;whiteSpace=wrap;connectable=0;overflow=hidden;fillColor=none;top=0;left=0;bottom=0;right=0;pointerEvents=1;fontFamily=palatina;fontSource=https%3A%2F%2Ffonts.googleapis.com%2Fcss%3Ffamily%3Dpalatina;resizeHeight=0;shadow=0;swimlaneLine=1;dashed=1;" vertex="1" parent="195">
                    <mxGeometry width="60" height="40" as="geometry">
                        <mxRectangle width="60" height="40" as="alternateBounds"/>
                    </mxGeometry>
                </mxCell>
                <mxCell id="197" value="0" style="shape=partialRectangle;html=1;whiteSpace=wrap;connectable=0;overflow=hidden;fillColor=none;top=0;left=0;bottom=0;right=0;pointerEvents=1;fontFamily=palatina;fontSource=https%3A%2F%2Ffonts.googleapis.com%2Fcss%3Ffamily%3Dpalatina;resizeHeight=0;shadow=0;swimlaneLine=1;dashed=1;" vertex="1" parent="195">
                    <mxGeometry x="60" width="60" height="40" as="geometry">
                        <mxRectangle width="60" height="40" as="alternateBounds"/>
                    </mxGeometry>
                </mxCell>
                <mxCell id="198" value="1" style="shape=partialRectangle;html=1;whiteSpace=wrap;connectable=0;overflow=hidden;fillColor=none;top=0;left=0;bottom=0;right=0;pointerEvents=1;fontFamily=palatina;fontSource=https%3A%2F%2Ffonts.googleapis.com%2Fcss%3Ffamily%3Dpalatina;resizeHeight=0;shadow=0;swimlaneLine=1;dashed=1;" vertex="1" parent="195">
                    <mxGeometry x="120" width="60" height="40" as="geometry">
                        <mxRectangle width="60" height="40" as="alternateBounds"/>
                    </mxGeometry>
                </mxCell>
                <mxCell id="199" value="" style="shape=tableRow;horizontal=0;startSize=0;swimlaneHead=0;swimlaneBody=0;top=0;left=0;bottom=0;right=0;collapsible=0;dropTarget=0;fillColor=none;points=[[0,0.5],[1,0.5]];portConstraint=eastwest;html=1;fontFamily=palatina;fontSource=https%3A%2F%2Ffonts.googleapis.com%2Fcss%3Ffamily%3Dpalatina;resizeHeight=0;shadow=0;swimlaneLine=1;dashed=1;" vertex="1" parent="186">
                    <mxGeometry y="150" width="180" height="40" as="geometry"/>
                </mxCell>
                <mxCell id="200" value="0" style="shape=partialRectangle;html=1;whiteSpace=wrap;connectable=0;overflow=hidden;fillColor=none;top=0;left=0;bottom=0;right=0;pointerEvents=1;fontFamily=palatina;fontSource=https%3A%2F%2Ffonts.googleapis.com%2Fcss%3Ffamily%3Dpalatina;resizeHeight=0;shadow=0;swimlaneLine=1;dashed=1;" vertex="1" parent="199">
                    <mxGeometry width="60" height="40" as="geometry">
                        <mxRectangle width="60" height="40" as="alternateBounds"/>
                    </mxGeometry>
                </mxCell>
                <mxCell id="201" value="0" style="shape=partialRectangle;html=1;whiteSpace=wrap;connectable=0;overflow=hidden;fillColor=none;top=0;left=0;bottom=0;right=0;pointerEvents=1;fontFamily=palatina;fontSource=https%3A%2F%2Ffonts.googleapis.com%2Fcss%3Ffamily%3Dpalatina;resizeHeight=0;shadow=0;swimlaneLine=1;dashed=1;" vertex="1" parent="199">
                    <mxGeometry x="60" width="60" height="40" as="geometry">
                        <mxRectangle width="60" height="40" as="alternateBounds"/>
                    </mxGeometry>
                </mxCell>
                <mxCell id="202" value="0" style="shape=partialRectangle;html=1;whiteSpace=wrap;connectable=0;overflow=hidden;fillColor=none;top=0;left=0;bottom=0;right=0;pointerEvents=1;fontFamily=palatina;fontSource=https%3A%2F%2Ffonts.googleapis.com%2Fcss%3Ffamily%3Dpalatina;resizeHeight=0;shadow=0;swimlaneLine=1;dashed=1;" vertex="1" parent="199">
                    <mxGeometry x="120" width="60" height="40" as="geometry">
                        <mxRectangle width="60" height="40" as="alternateBounds"/>
                    </mxGeometry>
                </mxCell>
                <mxCell id="203" value="" style="shape=tableRow;horizontal=0;startSize=0;swimlaneHead=0;swimlaneBody=0;top=0;left=0;bottom=0;right=0;collapsible=0;dropTarget=0;fillColor=none;points=[[0,0.5],[1,0.5]];portConstraint=eastwest;html=1;fontFamily=palatina;fontSource=https%3A%2F%2Ffonts.googleapis.com%2Fcss%3Ffamily%3Dpalatina;resizeHeight=0;shadow=0;swimlaneLine=1;dashed=1;" vertex="1" parent="186">
                    <mxGeometry y="190" width="180" height="40" as="geometry"/>
                </mxCell>
                <mxCell id="204" value="0" style="shape=partialRectangle;html=1;whiteSpace=wrap;connectable=0;overflow=hidden;fillColor=none;top=0;left=0;bottom=0;right=0;pointerEvents=1;fontFamily=palatina;fontSource=https%3A%2F%2Ffonts.googleapis.com%2Fcss%3Ffamily%3Dpalatina;resizeHeight=0;shadow=0;swimlaneLine=1;dashed=1;" vertex="1" parent="203">
                    <mxGeometry width="60" height="40" as="geometry">
                        <mxRectangle width="60" height="40" as="alternateBounds"/>
                    </mxGeometry>
                </mxCell>
                <mxCell id="205" value="0" style="shape=partialRectangle;html=1;whiteSpace=wrap;connectable=0;overflow=hidden;fillColor=none;top=0;left=0;bottom=0;right=0;pointerEvents=1;fontFamily=palatina;fontSource=https%3A%2F%2Ffonts.googleapis.com%2Fcss%3Ffamily%3Dpalatina;resizeHeight=0;shadow=0;swimlaneLine=1;dashed=1;" vertex="1" parent="203">
                    <mxGeometry x="60" width="60" height="40" as="geometry">
                        <mxRectangle width="60" height="40" as="alternateBounds"/>
                    </mxGeometry>
                </mxCell>
                <mxCell id="206" value="0" style="shape=partialRectangle;html=1;whiteSpace=wrap;connectable=0;overflow=hidden;fillColor=none;top=0;left=0;bottom=0;right=0;pointerEvents=1;fontFamily=palatina;fontSource=https%3A%2F%2Ffonts.googleapis.com%2Fcss%3Ffamily%3Dpalatina;resizeHeight=0;shadow=0;swimlaneLine=1;dashed=1;" vertex="1" parent="203">
                    <mxGeometry x="120" width="60" height="40" as="geometry">
                        <mxRectangle width="60" height="40" as="alternateBounds"/>
                    </mxGeometry>
                </mxCell>
                <mxCell id="207" value="" style="shape=tableRow;horizontal=0;startSize=0;swimlaneHead=0;swimlaneBody=0;top=0;left=0;bottom=0;right=0;collapsible=0;dropTarget=0;fillColor=none;points=[[0,0.5],[1,0.5]];portConstraint=eastwest;html=1;fontFamily=palatina;fontSource=https%3A%2F%2Ffonts.googleapis.com%2Fcss%3Ffamily%3Dpalatina;resizeHeight=0;shadow=0;swimlaneLine=1;dashed=1;" vertex="1" parent="186">
                    <mxGeometry y="230" width="180" height="40" as="geometry"/>
                </mxCell>
                <mxCell id="208" value="0" style="shape=partialRectangle;html=1;whiteSpace=wrap;connectable=0;overflow=hidden;fillColor=none;top=0;left=0;bottom=0;right=0;pointerEvents=1;fontFamily=palatina;fontSource=https%3A%2F%2Ffonts.googleapis.com%2Fcss%3Ffamily%3Dpalatina;resizeHeight=0;shadow=0;swimlaneLine=1;dashed=1;" vertex="1" parent="207">
                    <mxGeometry width="60" height="40" as="geometry">
                        <mxRectangle width="60" height="40" as="alternateBounds"/>
                    </mxGeometry>
                </mxCell>
                <mxCell id="209" value="0" style="shape=partialRectangle;html=1;whiteSpace=wrap;connectable=0;overflow=hidden;fillColor=none;top=0;left=0;bottom=0;right=0;pointerEvents=1;fontFamily=palatina;fontSource=https%3A%2F%2Ffonts.googleapis.com%2Fcss%3Ffamily%3Dpalatina;resizeHeight=0;shadow=0;swimlaneLine=1;dashed=1;" vertex="1" parent="207">
                    <mxGeometry x="60" width="60" height="40" as="geometry">
                        <mxRectangle width="60" height="40" as="alternateBounds"/>
                    </mxGeometry>
                </mxCell>
                <mxCell id="210" value="0" style="shape=partialRectangle;html=1;whiteSpace=wrap;connectable=0;overflow=hidden;fillColor=none;top=0;left=0;bottom=0;right=0;pointerEvents=1;fontFamily=palatina;fontSource=https%3A%2F%2Ffonts.googleapis.com%2Fcss%3Ffamily%3Dpalatina;resizeHeight=0;shadow=0;swimlaneLine=1;dashed=1;" vertex="1" parent="207">
                    <mxGeometry x="120" width="60" height="40" as="geometry">
                        <mxRectangle width="60" height="40" as="alternateBounds"/>
                    </mxGeometry>
                </mxCell>
                <mxCell id="211" value="" style="shape=tableRow;horizontal=0;startSize=0;swimlaneHead=0;swimlaneBody=0;top=0;left=0;bottom=0;right=0;collapsible=0;dropTarget=0;fillColor=none;points=[[0,0.5],[1,0.5]];portConstraint=eastwest;html=1;fontFamily=palatina;fontSource=https%3A%2F%2Ffonts.googleapis.com%2Fcss%3Ffamily%3Dpalatina;resizeHeight=0;shadow=0;swimlaneLine=1;dashed=1;" vertex="1" parent="186">
                    <mxGeometry y="270" width="180" height="40" as="geometry"/>
                </mxCell>
                <mxCell id="212" value="0" style="shape=partialRectangle;html=1;whiteSpace=wrap;connectable=0;overflow=hidden;fillColor=none;top=0;left=0;bottom=0;right=0;pointerEvents=1;fontFamily=palatina;fontSource=https%3A%2F%2Ffonts.googleapis.com%2Fcss%3Ffamily%3Dpalatina;resizeHeight=0;shadow=0;swimlaneLine=1;dashed=1;" vertex="1" parent="211">
                    <mxGeometry width="60" height="40" as="geometry">
                        <mxRectangle width="60" height="40" as="alternateBounds"/>
                    </mxGeometry>
                </mxCell>
                <mxCell id="213" value="0" style="shape=partialRectangle;html=1;whiteSpace=wrap;connectable=0;overflow=hidden;fillColor=none;top=0;left=0;bottom=0;right=0;pointerEvents=1;fontFamily=palatina;fontSource=https%3A%2F%2Ffonts.googleapis.com%2Fcss%3Ffamily%3Dpalatina;resizeHeight=0;shadow=0;swimlaneLine=1;dashed=1;" vertex="1" parent="211">
                    <mxGeometry x="60" width="60" height="40" as="geometry">
                        <mxRectangle width="60" height="40" as="alternateBounds"/>
                    </mxGeometry>
                </mxCell>
                <mxCell id="214" value="0" style="shape=partialRectangle;html=1;whiteSpace=wrap;connectable=0;overflow=hidden;fillColor=none;top=0;left=0;bottom=0;right=0;pointerEvents=1;fontFamily=palatina;fontSource=https%3A%2F%2Ffonts.googleapis.com%2Fcss%3Ffamily%3Dpalatina;resizeHeight=0;shadow=0;swimlaneLine=1;dashed=1;" vertex="1" parent="211">
                    <mxGeometry x="120" width="60" height="40" as="geometry">
                        <mxRectangle width="60" height="40" as="alternateBounds"/>
                    </mxGeometry>
                </mxCell>
                <mxCell id="215" value="$$M_3$$" style="shape=table;startSize=30;container=1;collapsible=0;childLayout=tableLayout;html=1;fontFamily=palatina;fontSource=https%3A%2F%2Ffonts.googleapis.com%2Fcss%3Ffamily%3Dpalatina;resizeHeight=0;rounded=0;strokeColor=default;perimeterSpacing=12;shadow=0;swimlaneLine=1;dashed=1;" vertex="1" parent="1">
                    <mxGeometry x="620" y="490" width="60" height="310" as="geometry"/>
                </mxCell>
                <mxCell id="216" value="" style="shape=tableRow;horizontal=0;startSize=0;swimlaneHead=0;swimlaneBody=0;top=0;left=0;bottom=0;right=0;collapsible=0;dropTarget=0;fillColor=none;points=[[0,0.5],[1,0.5]];portConstraint=eastwest;html=1;fontFamily=palatina;fontSource=https%3A%2F%2Ffonts.googleapis.com%2Fcss%3Ffamily%3Dpalatina;resizeHeight=0;shadow=0;swimlaneLine=1;dashed=1;" vertex="1" parent="215">
                    <mxGeometry y="30" width="60" height="40" as="geometry"/>
                </mxCell>
                <mxCell id="217" value="0" style="shape=partialRectangle;html=1;whiteSpace=wrap;connectable=0;overflow=hidden;fillColor=none;top=0;left=0;bottom=0;right=0;pointerEvents=1;fontFamily=palatina;fontSource=https%3A%2F%2Ffonts.googleapis.com%2Fcss%3Ffamily%3Dpalatina;resizeHeight=0;shadow=0;swimlaneLine=1;dashed=1;" vertex="1" parent="216">
                    <mxGeometry width="60" height="40" as="geometry">
                        <mxRectangle width="60" height="40" as="alternateBounds"/>
                    </mxGeometry>
                </mxCell>
                <mxCell id="218" value="" style="shape=tableRow;horizontal=0;startSize=0;swimlaneHead=0;swimlaneBody=0;top=0;left=0;bottom=0;right=0;collapsible=0;dropTarget=0;fillColor=none;points=[[0,0.5],[1,0.5]];portConstraint=eastwest;html=1;fontFamily=palatina;fontSource=https%3A%2F%2Ffonts.googleapis.com%2Fcss%3Ffamily%3Dpalatina;resizeHeight=0;shadow=0;swimlaneLine=1;dashed=1;" vertex="1" parent="215">
                    <mxGeometry y="70" width="60" height="40" as="geometry"/>
                </mxCell>
                <mxCell id="219" value="0" style="shape=partialRectangle;html=1;whiteSpace=wrap;connectable=0;overflow=hidden;fillColor=none;top=0;left=0;bottom=0;right=0;pointerEvents=1;fontFamily=palatina;fontSource=https%3A%2F%2Ffonts.googleapis.com%2Fcss%3Ffamily%3Dpalatina;resizeHeight=0;shadow=0;swimlaneLine=1;dashed=1;" vertex="1" parent="218">
                    <mxGeometry width="60" height="40" as="geometry">
                        <mxRectangle width="60" height="40" as="alternateBounds"/>
                    </mxGeometry>
                </mxCell>
                <mxCell id="220" value="" style="shape=tableRow;horizontal=0;startSize=0;swimlaneHead=0;swimlaneBody=0;top=0;left=0;bottom=0;right=0;collapsible=0;dropTarget=0;fillColor=none;points=[[0,0.5],[1,0.5]];portConstraint=eastwest;html=1;fontFamily=palatina;fontSource=https%3A%2F%2Ffonts.googleapis.com%2Fcss%3Ffamily%3Dpalatina;resizeHeight=0;shadow=0;swimlaneLine=1;dashed=1;" vertex="1" parent="215">
                    <mxGeometry y="110" width="60" height="40" as="geometry"/>
                </mxCell>
                <mxCell id="221" value="0" style="shape=partialRectangle;html=1;whiteSpace=wrap;connectable=0;overflow=hidden;fillColor=none;top=0;left=0;bottom=0;right=0;pointerEvents=1;fontFamily=palatina;fontSource=https%3A%2F%2Ffonts.googleapis.com%2Fcss%3Ffamily%3Dpalatina;resizeHeight=0;shadow=0;swimlaneLine=1;dashed=1;" vertex="1" parent="220">
                    <mxGeometry width="60" height="40" as="geometry">
                        <mxRectangle width="60" height="40" as="alternateBounds"/>
                    </mxGeometry>
                </mxCell>
                <mxCell id="222" value="" style="shape=tableRow;horizontal=0;startSize=0;swimlaneHead=0;swimlaneBody=0;top=0;left=0;bottom=0;right=0;collapsible=0;dropTarget=0;fillColor=none;points=[[0,0.5],[1,0.5]];portConstraint=eastwest;html=1;fontFamily=palatina;fontSource=https%3A%2F%2Ffonts.googleapis.com%2Fcss%3Ffamily%3Dpalatina;resizeHeight=0;shadow=0;swimlaneLine=1;dashed=1;" vertex="1" parent="215">
                    <mxGeometry y="150" width="60" height="40" as="geometry"/>
                </mxCell>
                <mxCell id="223" value="0" style="shape=partialRectangle;html=1;whiteSpace=wrap;connectable=0;overflow=hidden;fillColor=none;top=0;left=0;bottom=0;right=0;pointerEvents=1;fontFamily=palatina;fontSource=https%3A%2F%2Ffonts.googleapis.com%2Fcss%3Ffamily%3Dpalatina;resizeHeight=0;shadow=0;swimlaneLine=1;dashed=1;" vertex="1" parent="222">
                    <mxGeometry width="60" height="40" as="geometry">
                        <mxRectangle width="60" height="40" as="alternateBounds"/>
                    </mxGeometry>
                </mxCell>
                <mxCell id="224" value="" style="shape=tableRow;horizontal=0;startSize=0;swimlaneHead=0;swimlaneBody=0;top=0;left=0;bottom=0;right=0;collapsible=0;dropTarget=0;fillColor=none;points=[[0,0.5],[1,0.5]];portConstraint=eastwest;html=1;fontFamily=palatina;fontSource=https%3A%2F%2Ffonts.googleapis.com%2Fcss%3Ffamily%3Dpalatina;resizeHeight=0;shadow=0;swimlaneLine=1;dashed=1;" vertex="1" parent="215">
                    <mxGeometry y="190" width="60" height="40" as="geometry"/>
                </mxCell>
                <mxCell id="225" value="0" style="shape=partialRectangle;html=1;whiteSpace=wrap;connectable=0;overflow=hidden;fillColor=none;top=0;left=0;bottom=0;right=0;pointerEvents=1;fontFamily=palatina;fontSource=https%3A%2F%2Ffonts.googleapis.com%2Fcss%3Ffamily%3Dpalatina;resizeHeight=0;shadow=0;swimlaneLine=1;dashed=1;" vertex="1" parent="224">
                    <mxGeometry width="60" height="40" as="geometry">
                        <mxRectangle width="60" height="40" as="alternateBounds"/>
                    </mxGeometry>
                </mxCell>
                <mxCell id="226" value="" style="shape=tableRow;horizontal=0;startSize=0;swimlaneHead=0;swimlaneBody=0;top=0;left=0;bottom=0;right=0;collapsible=0;dropTarget=0;fillColor=none;points=[[0,0.5],[1,0.5]];portConstraint=eastwest;html=1;fontFamily=palatina;fontSource=https%3A%2F%2Ffonts.googleapis.com%2Fcss%3Ffamily%3Dpalatina;resizeHeight=0;shadow=0;swimlaneLine=1;dashed=1;" vertex="1" parent="215">
                    <mxGeometry y="230" width="60" height="40" as="geometry"/>
                </mxCell>
                <mxCell id="227" value="0" style="shape=partialRectangle;html=1;whiteSpace=wrap;connectable=0;overflow=hidden;fillColor=none;top=0;left=0;bottom=0;right=0;pointerEvents=1;fontFamily=palatina;fontSource=https%3A%2F%2Ffonts.googleapis.com%2Fcss%3Ffamily%3Dpalatina;resizeHeight=0;shadow=0;swimlaneLine=1;dashed=1;" vertex="1" parent="226">
                    <mxGeometry width="60" height="40" as="geometry">
                        <mxRectangle width="60" height="40" as="alternateBounds"/>
                    </mxGeometry>
                </mxCell>
                <mxCell id="228" value="" style="shape=tableRow;horizontal=0;startSize=0;swimlaneHead=0;swimlaneBody=0;top=0;left=0;bottom=0;right=0;collapsible=0;dropTarget=0;fillColor=none;points=[[0,0.5],[1,0.5]];portConstraint=eastwest;html=1;fontFamily=palatina;fontSource=https%3A%2F%2Ffonts.googleapis.com%2Fcss%3Ffamily%3Dpalatina;resizeHeight=0;shadow=0;swimlaneLine=1;dashed=1;" vertex="1" parent="215">
                    <mxGeometry y="270" width="60" height="40" as="geometry"/>
                </mxCell>
                <mxCell id="229" value="1" style="shape=partialRectangle;html=1;whiteSpace=wrap;connectable=0;overflow=hidden;fillColor=none;top=0;left=0;bottom=0;right=0;pointerEvents=1;fontFamily=palatina;fontSource=https%3A%2F%2Ffonts.googleapis.com%2Fcss%3Ffamily%3Dpalatina;resizeHeight=0;shadow=0;swimlaneLine=1;dashed=1;" vertex="1" parent="228">
                    <mxGeometry width="60" height="40" as="geometry">
                        <mxRectangle width="60" height="40" as="alternateBounds"/>
                    </mxGeometry>
                </mxCell>
                <mxCell id="247" value="$$T$$" style="shape=table;startSize=30;container=1;collapsible=0;childLayout=tableLayout;html=1;fontFamily=palatina;fontSource=https%3A%2F%2Ffonts.googleapis.com%2Fcss%3Ffamily%3Dpalatina;resizeHeight=0;rounded=0;swimlaneLine=1;shadow=0;strokeColor=default;perimeterSpacing=12;dashed=1;" vertex="1" parent="1">
                    <mxGeometry x="670" y="20" width="420" height="190" as="geometry"/>
                </mxCell>
                <mxCell id="248" value="" style="shape=tableRow;horizontal=0;startSize=0;swimlaneHead=0;swimlaneBody=0;top=0;left=0;bottom=0;right=0;collapsible=0;dropTarget=0;fillColor=none;points=[[0,0.5],[1,0.5]];portConstraint=eastwest;html=1;fontFamily=palatina;fontSource=https%3A%2F%2Ffonts.googleapis.com%2Fcss%3Ffamily%3Dpalatina;resizeHeight=0;shadow=0;swimlaneLine=1;dashed=1;" vertex="1" parent="247">
                    <mxGeometry y="30" width="420" height="40" as="geometry"/>
                </mxCell>
                <mxCell id="249" value="1" style="shape=partialRectangle;html=1;whiteSpace=wrap;connectable=0;overflow=hidden;fillColor=none;top=0;left=0;bottom=0;right=0;pointerEvents=1;fontFamily=palatina;fontSource=https%3A%2F%2Ffonts.googleapis.com%2Fcss%3Ffamily%3Dpalatina;resizeHeight=0;shadow=0;swimlaneLine=1;dashed=1;" vertex="1" parent="248">
                    <mxGeometry width="60" height="40" as="geometry">
                        <mxRectangle width="60" height="40" as="alternateBounds"/>
                    </mxGeometry>
                </mxCell>
                <mxCell id="250" value="11" style="shape=partialRectangle;html=1;whiteSpace=wrap;connectable=0;overflow=hidden;fillColor=none;top=0;left=0;bottom=0;right=0;pointerEvents=1;fontFamily=palatina;fontSource=https%3A%2F%2Ffonts.googleapis.com%2Fcss%3Ffamily%3Dpalatina;resizeHeight=0;shadow=0;swimlaneLine=1;dashed=1;" vertex="1" parent="248">
                    <mxGeometry x="60" width="60" height="40" as="geometry">
                        <mxRectangle width="60" height="40" as="alternateBounds"/>
                    </mxGeometry>
                </mxCell>
                <mxCell id="251" value="2024" style="shape=partialRectangle;html=1;whiteSpace=wrap;connectable=0;overflow=hidden;fillColor=none;top=0;left=0;bottom=0;right=0;pointerEvents=1;fontFamily=palatina;fontSource=https%3A%2F%2Ffonts.googleapis.com%2Fcss%3Ffamily%3Dpalatina;resizeHeight=0;shadow=0;swimlaneLine=1;dashed=1;" vertex="1" parent="248">
                    <mxGeometry x="120" width="60" height="40" as="geometry">
                        <mxRectangle width="60" height="40" as="alternateBounds"/>
                    </mxGeometry>
                </mxCell>
                <mxCell id="252" value="2" style="shape=partialRectangle;html=1;whiteSpace=wrap;connectable=0;overflow=hidden;fillColor=none;top=0;left=0;bottom=0;right=0;pointerEvents=1;fontFamily=palatina;fontSource=https%3A%2F%2Ffonts.googleapis.com%2Fcss%3Ffamily%3Dpalatina;resizeHeight=0;shadow=0;swimlaneLine=1;dashed=1;" vertex="1" parent="248">
                    <mxGeometry x="180" width="60" height="40" as="geometry">
                        <mxRectangle width="60" height="40" as="alternateBounds"/>
                    </mxGeometry>
                </mxCell>
                <mxCell id="253" value="20" style="shape=partialRectangle;html=1;whiteSpace=wrap;connectable=0;overflow=hidden;fillColor=none;top=0;left=0;bottom=0;right=0;pointerEvents=1;fontFamily=palatina;fontSource=https%3A%2F%2Ffonts.googleapis.com%2Fcss%3Ffamily%3Dpalatina;resizeHeight=0;shadow=0;swimlaneLine=1;dashed=1;" vertex="1" parent="248">
                    <mxGeometry x="240" width="60" height="40" as="geometry">
                        <mxRectangle width="60" height="40" as="alternateBounds"/>
                    </mxGeometry>
                </mxCell>
                <mxCell id="254" value="40" style="shape=partialRectangle;html=1;whiteSpace=wrap;connectable=0;overflow=hidden;fillColor=none;top=0;left=0;bottom=0;right=0;pointerEvents=1;fontFamily=palatina;fontSource=https%3A%2F%2Ffonts.googleapis.com%2Fcss%3Ffamily%3Dpalatina;resizeHeight=0;shadow=0;swimlaneLine=1;dashed=1;" vertex="1" parent="248">
                    <mxGeometry x="300" width="60" height="40" as="geometry">
                        <mxRectangle width="60" height="40" as="alternateBounds"/>
                    </mxGeometry>
                </mxCell>
                <mxCell id="255" value="0" style="shape=partialRectangle;html=1;whiteSpace=wrap;connectable=0;overflow=hidden;fillColor=none;top=0;left=0;bottom=0;right=0;pointerEvents=1;fontFamily=palatina;fontSource=https%3A%2F%2Ffonts.googleapis.com%2Fcss%3Ffamily%3Dpalatina;resizeHeight=0;shadow=0;swimlaneLine=1;dashed=1;" vertex="1" parent="248">
                    <mxGeometry x="360" width="60" height="40" as="geometry">
                        <mxRectangle width="60" height="40" as="alternateBounds"/>
                    </mxGeometry>
                </mxCell>
                <mxCell id="256" value="" style="shape=tableRow;horizontal=0;startSize=0;swimlaneHead=0;swimlaneBody=0;top=0;left=0;bottom=0;right=0;collapsible=0;dropTarget=0;fillColor=none;points=[[0,0.5],[1,0.5]];portConstraint=eastwest;html=1;fontFamily=palatina;fontSource=https%3A%2F%2Ffonts.googleapis.com%2Fcss%3Ffamily%3Dpalatina;resizeHeight=0;shadow=0;swimlaneLine=1;dashed=1;" vertex="1" parent="247">
                    <mxGeometry y="70" width="420" height="40" as="geometry"/>
                </mxCell>
                <mxCell id="257" value="1" style="shape=partialRectangle;html=1;whiteSpace=wrap;connectable=0;overflow=hidden;fillColor=none;top=0;left=0;bottom=0;right=0;pointerEvents=1;fontFamily=palatina;fontSource=https%3A%2F%2Ffonts.googleapis.com%2Fcss%3Ffamily%3Dpalatina;resizeHeight=0;shadow=0;swimlaneLine=1;dashed=1;" vertex="1" parent="256">
                    <mxGeometry width="60" height="40" as="geometry">
                        <mxRectangle width="60" height="40" as="alternateBounds"/>
                    </mxGeometry>
                </mxCell>
                <mxCell id="258" value="11" style="shape=partialRectangle;html=1;whiteSpace=wrap;connectable=0;overflow=hidden;fillColor=none;top=0;left=0;bottom=0;right=0;pointerEvents=1;fontFamily=palatina;fontSource=https%3A%2F%2Ffonts.googleapis.com%2Fcss%3Ffamily%3Dpalatina;resizeHeight=0;shadow=0;swimlaneLine=1;dashed=1;" vertex="1" parent="256">
                    <mxGeometry x="60" width="60" height="40" as="geometry">
                        <mxRectangle width="60" height="40" as="alternateBounds"/>
                    </mxGeometry>
                </mxCell>
                <mxCell id="259" value="2024" style="shape=partialRectangle;html=1;whiteSpace=wrap;connectable=0;overflow=hidden;fillColor=none;top=0;left=0;bottom=0;right=0;pointerEvents=1;fontFamily=palatina;fontSource=https%3A%2F%2Ffonts.googleapis.com%2Fcss%3Ffamily%3Dpalatina;resizeHeight=0;shadow=0;swimlaneLine=1;dashed=1;" vertex="1" parent="256">
                    <mxGeometry x="120" width="60" height="40" as="geometry">
                        <mxRectangle width="60" height="40" as="alternateBounds"/>
                    </mxGeometry>
                </mxCell>
                <mxCell id="260" value="1" style="shape=partialRectangle;html=1;whiteSpace=wrap;connectable=0;overflow=hidden;fillColor=none;top=0;left=0;bottom=0;right=0;pointerEvents=1;fontFamily=palatina;fontSource=https%3A%2F%2Ffonts.googleapis.com%2Fcss%3Ffamily%3Dpalatina;resizeHeight=0;shadow=0;swimlaneLine=1;dashed=1;" vertex="1" parent="256">
                    <mxGeometry x="180" width="60" height="40" as="geometry">
                        <mxRectangle width="60" height="40" as="alternateBounds"/>
                    </mxGeometry>
                </mxCell>
                <mxCell id="261" value="25" style="shape=partialRectangle;html=1;whiteSpace=wrap;connectable=0;overflow=hidden;fillColor=none;top=0;left=0;bottom=0;right=0;pointerEvents=1;fontFamily=palatina;fontSource=https%3A%2F%2Ffonts.googleapis.com%2Fcss%3Ffamily%3Dpalatina;resizeHeight=0;shadow=0;swimlaneLine=1;dashed=1;" vertex="1" parent="256">
                    <mxGeometry x="240" width="60" height="40" as="geometry">
                        <mxRectangle width="60" height="40" as="alternateBounds"/>
                    </mxGeometry>
                </mxCell>
                <mxCell id="262" value="25" style="shape=partialRectangle;html=1;whiteSpace=wrap;connectable=0;overflow=hidden;fillColor=none;top=0;left=0;bottom=0;right=0;pointerEvents=1;fontFamily=palatina;fontSource=https%3A%2F%2Ffonts.googleapis.com%2Fcss%3Ffamily%3Dpalatina;resizeHeight=0;shadow=0;swimlaneLine=1;dashed=1;" vertex="1" parent="256">
                    <mxGeometry x="300" width="60" height="40" as="geometry">
                        <mxRectangle width="60" height="40" as="alternateBounds"/>
                    </mxGeometry>
                </mxCell>
                <mxCell id="263" value="0" style="shape=partialRectangle;html=1;whiteSpace=wrap;connectable=0;overflow=hidden;fillColor=none;top=0;left=0;bottom=0;right=0;pointerEvents=1;fontFamily=palatina;fontSource=https%3A%2F%2Ffonts.googleapis.com%2Fcss%3Ffamily%3Dpalatina;resizeHeight=0;shadow=0;swimlaneLine=1;dashed=1;" vertex="1" parent="256">
                    <mxGeometry x="360" width="60" height="40" as="geometry">
                        <mxRectangle width="60" height="40" as="alternateBounds"/>
                    </mxGeometry>
                </mxCell>
                <mxCell id="264" value="" style="shape=tableRow;horizontal=0;startSize=0;swimlaneHead=0;swimlaneBody=0;top=0;left=0;bottom=0;right=0;collapsible=0;dropTarget=0;fillColor=none;points=[[0,0.5],[1,0.5]];portConstraint=eastwest;html=1;fontFamily=palatina;fontSource=https%3A%2F%2Ffonts.googleapis.com%2Fcss%3Ffamily%3Dpalatina;resizeHeight=0;shadow=0;swimlaneLine=1;dashed=1;" vertex="1" parent="247">
                    <mxGeometry y="110" width="420" height="40" as="geometry"/>
                </mxCell>
                <mxCell id="265" value="2" style="shape=partialRectangle;html=1;whiteSpace=wrap;connectable=0;overflow=hidden;fillColor=none;top=0;left=0;bottom=0;right=0;pointerEvents=1;fontFamily=palatina;fontSource=https%3A%2F%2Ffonts.googleapis.com%2Fcss%3Ffamily%3Dpalatina;resizeHeight=0;shadow=0;swimlaneLine=1;dashed=1;" vertex="1" parent="264">
                    <mxGeometry width="60" height="40" as="geometry">
                        <mxRectangle width="60" height="40" as="alternateBounds"/>
                    </mxGeometry>
                </mxCell>
                <mxCell id="266" value="12" style="shape=partialRectangle;html=1;whiteSpace=wrap;connectable=0;overflow=hidden;fillColor=none;top=0;left=0;bottom=0;right=0;pointerEvents=1;fontFamily=palatina;fontSource=https%3A%2F%2Ffonts.googleapis.com%2Fcss%3Ffamily%3Dpalatina;resizeHeight=0;shadow=0;swimlaneLine=1;dashed=1;" vertex="1" parent="264">
                    <mxGeometry x="60" width="60" height="40" as="geometry">
                        <mxRectangle width="60" height="40" as="alternateBounds"/>
                    </mxGeometry>
                </mxCell>
                <mxCell id="267" value="2024" style="shape=partialRectangle;html=1;whiteSpace=wrap;connectable=0;overflow=hidden;fillColor=none;top=0;left=0;bottom=0;right=0;pointerEvents=1;fontFamily=palatina;fontSource=https%3A%2F%2Ffonts.googleapis.com%2Fcss%3Ffamily%3Dpalatina;resizeHeight=0;shadow=0;swimlaneLine=1;dashed=1;" vertex="1" parent="264">
                    <mxGeometry x="120" width="60" height="40" as="geometry">
                        <mxRectangle width="60" height="40" as="alternateBounds"/>
                    </mxGeometry>
                </mxCell>
                <mxCell id="268" value="3" style="shape=partialRectangle;html=1;whiteSpace=wrap;connectable=0;overflow=hidden;fillColor=none;top=0;left=0;bottom=0;right=0;pointerEvents=1;fontFamily=palatina;fontSource=https%3A%2F%2Ffonts.googleapis.com%2Fcss%3Ffamily%3Dpalatina;resizeHeight=0;shadow=0;swimlaneLine=1;dashed=1;" vertex="1" parent="264">
                    <mxGeometry x="180" width="60" height="40" as="geometry">
                        <mxRectangle width="60" height="40" as="alternateBounds"/>
                    </mxGeometry>
                </mxCell>
                <mxCell id="269" value="13" style="shape=partialRectangle;html=1;whiteSpace=wrap;connectable=0;overflow=hidden;fillColor=none;top=0;left=0;bottom=0;right=0;pointerEvents=1;fontFamily=palatina;fontSource=https%3A%2F%2Ffonts.googleapis.com%2Fcss%3Ffamily%3Dpalatina;resizeHeight=0;shadow=0;swimlaneLine=1;dashed=1;" vertex="1" parent="264">
                    <mxGeometry x="240" width="60" height="40" as="geometry">
                        <mxRectangle width="60" height="40" as="alternateBounds"/>
                    </mxGeometry>
                </mxCell>
                <mxCell id="270" value="39" style="shape=partialRectangle;html=1;whiteSpace=wrap;connectable=0;overflow=hidden;fillColor=none;top=0;left=0;bottom=0;right=0;pointerEvents=1;fontFamily=palatina;fontSource=https%3A%2F%2Ffonts.googleapis.com%2Fcss%3Ffamily%3Dpalatina;resizeHeight=0;shadow=0;swimlaneLine=1;dashed=1;" vertex="1" parent="264">
                    <mxGeometry x="300" width="60" height="40" as="geometry">
                        <mxRectangle width="60" height="40" as="alternateBounds"/>
                    </mxGeometry>
                </mxCell>
                <mxCell id="271" value="0" style="shape=partialRectangle;html=1;whiteSpace=wrap;connectable=0;overflow=hidden;fillColor=none;top=0;left=0;bottom=0;right=0;pointerEvents=1;fontFamily=palatina;fontSource=https%3A%2F%2Ffonts.googleapis.com%2Fcss%3Ffamily%3Dpalatina;resizeHeight=0;shadow=0;swimlaneLine=1;dashed=1;" vertex="1" parent="264">
                    <mxGeometry x="360" width="60" height="40" as="geometry">
                        <mxRectangle width="60" height="40" as="alternateBounds"/>
                    </mxGeometry>
                </mxCell>
                <mxCell id="272" value="" style="shape=tableRow;horizontal=0;startSize=0;swimlaneHead=0;swimlaneBody=0;top=0;left=0;bottom=0;right=0;collapsible=0;dropTarget=0;fillColor=none;points=[[0,0.5],[1,0.5]];portConstraint=eastwest;html=1;fontFamily=palatina;fontSource=https%3A%2F%2Ffonts.googleapis.com%2Fcss%3Ffamily%3Dpalatina;resizeHeight=0;shadow=0;swimlaneLine=1;dashed=1;" vertex="1" parent="247">
                    <mxGeometry y="150" width="420" height="40" as="geometry"/>
                </mxCell>
                <mxCell id="273" value="3" style="shape=partialRectangle;html=1;whiteSpace=wrap;connectable=0;overflow=hidden;fillColor=none;top=0;left=0;bottom=0;right=0;pointerEvents=1;fontFamily=palatina;fontSource=https%3A%2F%2Ffonts.googleapis.com%2Fcss%3Ffamily%3Dpalatina;resizeHeight=0;shadow=0;swimlaneLine=1;dashed=1;" vertex="1" parent="272">
                    <mxGeometry width="60" height="40" as="geometry">
                        <mxRectangle width="60" height="40" as="alternateBounds"/>
                    </mxGeometry>
                </mxCell>
                <mxCell id="274" value="11" style="shape=partialRectangle;html=1;whiteSpace=wrap;connectable=0;overflow=hidden;fillColor=none;top=0;left=0;bottom=0;right=0;pointerEvents=1;fontFamily=palatina;fontSource=https%3A%2F%2Ffonts.googleapis.com%2Fcss%3Ffamily%3Dpalatina;resizeHeight=0;shadow=0;swimlaneLine=1;dashed=1;" vertex="1" parent="272">
                    <mxGeometry x="60" width="60" height="40" as="geometry">
                        <mxRectangle width="60" height="40" as="alternateBounds"/>
                    </mxGeometry>
                </mxCell>
                <mxCell id="275" value="2023" style="shape=partialRectangle;html=1;whiteSpace=wrap;connectable=0;overflow=hidden;fillColor=none;top=0;left=0;bottom=0;right=0;pointerEvents=1;fontFamily=palatina;fontSource=https%3A%2F%2Ffonts.googleapis.com%2Fcss%3Ffamily%3Dpalatina;resizeHeight=0;shadow=0;swimlaneLine=1;dashed=1;" vertex="1" parent="272">
                    <mxGeometry x="120" width="60" height="40" as="geometry">
                        <mxRectangle width="60" height="40" as="alternateBounds"/>
                    </mxGeometry>
                </mxCell>
                <mxCell id="276" value="1" style="shape=partialRectangle;html=1;whiteSpace=wrap;connectable=0;overflow=hidden;fillColor=none;top=0;left=0;bottom=0;right=0;pointerEvents=1;fontFamily=palatina;fontSource=https%3A%2F%2Ffonts.googleapis.com%2Fcss%3Ffamily%3Dpalatina;resizeHeight=0;shadow=0;swimlaneLine=1;dashed=1;" vertex="1" parent="272">
                    <mxGeometry x="180" width="60" height="40" as="geometry">
                        <mxRectangle width="60" height="40" as="alternateBounds"/>
                    </mxGeometry>
                </mxCell>
                <mxCell id="277" value="10" style="shape=partialRectangle;html=1;whiteSpace=wrap;connectable=0;overflow=hidden;fillColor=none;top=0;left=0;bottom=0;right=0;pointerEvents=1;fontFamily=palatina;fontSource=https%3A%2F%2Ffonts.googleapis.com%2Fcss%3Ffamily%3Dpalatina;resizeHeight=0;shadow=0;swimlaneLine=1;dashed=1;" vertex="1" parent="272">
                    <mxGeometry x="240" width="60" height="40" as="geometry">
                        <mxRectangle width="60" height="40" as="alternateBounds"/>
                    </mxGeometry>
                </mxCell>
                <mxCell id="278" value="10" style="shape=partialRectangle;html=1;whiteSpace=wrap;connectable=0;overflow=hidden;fillColor=none;top=0;left=0;bottom=0;right=0;pointerEvents=1;fontFamily=palatina;fontSource=https%3A%2F%2Ffonts.googleapis.com%2Fcss%3Ffamily%3Dpalatina;resizeHeight=0;shadow=0;swimlaneLine=1;dashed=1;" vertex="1" parent="272">
                    <mxGeometry x="300" width="60" height="40" as="geometry">
                        <mxRectangle width="60" height="40" as="alternateBounds"/>
                    </mxGeometry>
                </mxCell>
                <mxCell id="279" value="1" style="shape=partialRectangle;html=1;whiteSpace=wrap;connectable=0;overflow=hidden;fillColor=none;top=0;left=0;bottom=0;right=0;pointerEvents=1;fontFamily=palatina;fontSource=https%3A%2F%2Ffonts.googleapis.com%2Fcss%3Ffamily%3Dpalatina;resizeHeight=0;shadow=0;swimlaneLine=1;dashed=1;" vertex="1" parent="272">
                    <mxGeometry x="360" width="60" height="40" as="geometry">
                        <mxRectangle width="60" height="40" as="alternateBounds"/>
                    </mxGeometry>
                </mxCell>
                <mxCell id="334" value="$$S_1$$" style="shape=table;startSize=30;container=1;collapsible=0;childLayout=tableLayout;fontFamily=palatina;fontSource=https%3A%2F%2Ffonts.googleapis.com%2Fcss%3Ffamily%3Dpalatina;resizeHeight=0;rounded=0;strokeColor=default;perimeterSpacing=12;shadow=0;swimlaneLine=1;dashed=1;whiteSpace=wrap;" vertex="1" parent="1">
                    <mxGeometry x="780" y="310" width="200" height="240" as="geometry"/>
                </mxCell>
                <mxCell id="335" value="" style="shape=tableRow;horizontal=0;startSize=0;swimlaneHead=0;swimlaneBody=0;top=0;left=0;bottom=0;right=0;collapsible=0;dropTarget=0;fillColor=none;points=[[0,0.5],[1,0.5]];portConstraint=eastwest;fontFamily=palatina;fontSource=https%3A%2F%2Ffonts.googleapis.com%2Fcss%3Ffamily%3Dpalatina;resizeHeight=0;shadow=0;swimlaneLine=1;dashed=1;" vertex="1" parent="334">
                    <mxGeometry y="30" width="200" height="210" as="geometry"/>
                </mxCell>
                <mxCell id="336" value="$$&lt;span style=&quot;color: rgb(171, 178, 191); font-family: &amp;quot;Droid Sans Mono&amp;quot;, &amp;quot;monospace&amp;quot;, monospace; font-size: 14px; text-align: start;&quot;&gt;\begin{bmatrix}&lt;br&gt;&lt;/span&gt;&lt;span style=&quot;color: rgb(171, 178, 191); font-family: &amp;quot;Droid Sans Mono&amp;quot;, &amp;quot;monospace&amp;quot;, monospace; font-size: 14px; text-align: start;&quot;&gt;  1 &amp;amp; 11 &amp;amp; 2024\\&lt;br&gt;&lt;/span&gt;&lt;span style=&quot;color: rgb(171, 178, 191); font-family: &amp;quot;Droid Sans Mono&amp;quot;, &amp;quot;monospace&amp;quot;, monospace; font-size: 14px; text-align: start;&quot;&gt;  2 &amp;amp; 12 &amp;amp; 2024\\&lt;br&gt;&lt;/span&gt;&lt;span style=&quot;color: rgb(171, 178, 191); font-family: &amp;quot;Droid Sans Mono&amp;quot;, &amp;quot;monospace&amp;quot;, monospace; font-size: 14px; text-align: start;&quot;&gt;  3 &amp;amp; 11 &amp;amp; 2024\\&lt;br&gt;&lt;/span&gt;&lt;span style=&quot;color: rgb(171, 178, 191); font-family: &amp;quot;Droid Sans Mono&amp;quot;, &amp;quot;monospace&amp;quot;, monospace; font-size: 14px; text-align: start;&quot;&gt;\end{bmatrix}&lt;/span&gt;$$" style="shape=partialRectangle;html=1;whiteSpace=wrap;connectable=0;overflow=hidden;fillColor=none;top=0;left=0;bottom=0;right=0;pointerEvents=1;fontFamily=palatina;fontSource=https%3A%2F%2Ffonts.googleapis.com%2Fcss%3Ffamily%3Dpalatina;resizeHeight=0;shadow=0;swimlaneLine=1;dashed=1;" vertex="1" parent="335">
                    <mxGeometry width="200" height="210" as="geometry">
                        <mxRectangle width="200" height="210" as="alternateBounds"/>
                    </mxGeometry>
                </mxCell>
                <mxCell id="341" value="$$S_1 =\begin{bmatrix}&#10;1 &amp; 11 &amp; 2024\\&#10;2 &amp; 12 &amp; 2024\\&#10;3 &amp; 11 &amp; 2024\\&#10;\end{bmatrix}$$" style="text;fontSize=12;fontFamily=Helvetica;fontColor=default;whiteSpace=wrap;" vertex="1" parent="1">
                    <mxGeometry x="760" y="630" width="170" height="110" as="geometry"/>
                </mxCell>
                <mxCell id="342" value="\begin{bmatrix}  1 &amp; 11 &amp; 2024\\  2 &amp; 12 &amp; 2024\\  3 &amp; 11 &amp; 2024\\\end{bmatrix}\begin{bmatrix}  2 &amp; 20 &amp; 40\\  1 &amp; 25 &amp; 25\\  3 &amp; 13 &amp; 39\\  1 &amp; 10 &amp; 10\\\end{bmatrix}\begin{bmatrix}  1.\\\end{bmatrix}&#10;" style="text;whiteSpace=wrap;fontSize=12;fontFamily=Helvetica;fontColor=default;" vertex="1" parent="1">
                    <mxGeometry x="990" y="630" width="160" height="410" as="geometry"/>
                </mxCell>
            </root>
        </mxGraphModel>
    </diagram>
</mxfile>